<?xml version="1.0" encoding="utf-8" ?>
<svg xmlns="http://www.w3.org/2000/svg" xmlns:xlink="http://www.w3.org/1999/xlink" width="116" height="116">
	<path fill="#6F6864" d="M28.3956 10.1149C29.1001 9.81152 29.8535 9.35905 30.625 9.65048C30.8286 10.1109 30.9763 10.512 31.0423 11.0125C30.9347 11.7237 30.783 12.4606 30.7634 13.1789C30.1569 13.1086 29.6002 13.0555 28.9888 13.125C28.7845 13.3336 28.3564 13.8787 28.0928 13.9448L28.3956 10.1149Z"/>
	<path fill="#807C78" d="M28.0928 13.9448C28.3564 13.8787 28.7845 13.3336 28.9888 13.125C29.6002 13.0555 30.1569 13.1086 30.7634 13.1789C30.9229 14.1769 31.0565 14.9882 30.7165 15.9714C30.4795 16.0799 29.4985 16.3584 29.3756 16.485C28.9023 16.9722 28.4505 18.0206 28.0166 18.6193L28.0928 13.9448Z"/>
	<path fill="#E3DDD9" d="M28.3956 10.1149C28.7846 9.09425 29.2864 8.03057 30.1605 7.34278C32.0105 5.88715 34.772 5.60122 37.0523 5.87679C35.9152 5.92231 34.8931 5.91932 33.875 6.50041C32.7464 7.98958 32.2118 9.12587 32.0568 11.032L31.0423 11.0125C30.9763 10.512 30.8286 10.1109 30.625 9.65048C29.8535 9.35905 29.1001 9.81152 28.3956 10.1149Z"/>
	<path fill="#C6C0B8" d="M34.1655 109.145C34.8593 110.9 35.7417 111.596 37.3732 112.503L38.1701 112.752L38.1496 112.97C36.8948 113.158 35.5826 113.37 34.344 112.992C32.3714 112.39 31.4603 111.355 30.5509 109.614C32.0263 109.384 32.7414 109.883 34.1655 109.145Z"/>
	<path fill="#121214" d="M37.0523 5.87679L41.8737 7.15218L40.6435 7.41955C40.6246 7.65545 40.6468 8.07251 40.5204 8.26857L38.8222 7.85008C37.7893 7.13908 37.0597 6.86682 35.7761 7.11171C35.1827 7.22492 34.6146 7.63945 34.125 7.97914C33.8763 8.45921 33.2394 9.42211 33.2643 9.93251L33.1084 14.3198C33.0886 14.8367 33.1738 15.7068 33.0201 16.1835C32.66 16.7607 32.6082 17.2167 32.5625 17.8762C32.0218 15.8568 32.7002 13.6426 32.0757 11.6028L32.0568 11.032C32.2118 9.12587 32.7464 7.98958 33.875 6.50041C34.8931 5.91932 35.9152 5.92231 37.0523 5.87679Z"/>
	<path fill="#544D4A" d="M29.5852 101.562C29.9411 102.065 29.8479 102.67 29.875 103.278L31.7785 103.264C32.259 104.173 32.1403 105.234 32.875 105.856L33.2131 105.625L33.2769 103.131L34.1655 109.145C32.7414 109.883 32.0263 109.384 30.5509 109.614C29.5227 107.042 29.537 104.283 29.5852 101.562Z"/>
	<path fill="#111" d="M41.8737 7.15218L52.1896 10.4509C55.1731 11.3564 59.0548 11.8375 61.7638 13.3692C63.2292 14.1978 64.2787 15.3661 65.0302 16.875C65.2164 17.2488 65.3408 17.6667 65.4539 18.0681L64.6355 17.9345C64.6199 17.4003 64.2867 16.6229 63.9815 16.1893C63.3999 15.3629 62.0073 14.4753 61.0929 14.0811C57.0345 12.3316 52.1453 11.5216 47.866 10.3521C45.4107 9.68114 43.0315 8.71081 40.5204 8.26857C40.6468 8.07251 40.6246 7.65545 40.6435 7.41955L41.8737 7.15218Z"/>
	<defs>
		<linearGradient id="gradient_0" gradientUnits="userSpaceOnUse" x1="18.884811" y1="58.908768" x2="42.955849" y2="51.857605">
			<stop offset="0" stop-color="#817F83"/>
			<stop offset="1" stop-color="#C4BCAB"/>
		</linearGradient>
	</defs>
	<path fill="url(#gradient_0)" d="M31.0423 11.0125L32.0568 11.032L32.0757 11.6028C32.7002 13.6426 32.0218 15.8568 32.5625 17.8762C32.6082 17.2167 32.66 16.7607 33.0201 16.1835L33.2958 33.5983L33.4885 47.5354C33.5069 50.683 33.1118 54.4603 33.7072 57.5172L34.0056 72.6292L34.0091 82.0658C33.6198 82.3533 34.1128 84.7002 33.8725 85.25C33.7893 85.4402 33.512 85.7011 33.375 85.8725C32.9305 85.3319 33.1943 82.8365 33.1966 82.007C33.2084 77.6602 33.5813 72.966 33.0336 68.6621L32.9459 88.3275L33.2769 103.131L33.2131 105.625L32.875 105.856C32.1403 105.234 32.259 104.173 31.7785 103.264L29.875 103.278C29.8479 102.67 29.9411 102.065 29.5852 101.562L29.4932 91.9494C29.1927 89.5445 29.3174 86.9475 29.2753 84.5203L29.0425 72.1962L28.4213 35.5249C28.296 29.944 28.4996 24.1735 28.0166 18.6193C28.4505 18.0206 28.9023 16.9722 29.3756 16.485C29.4985 16.3584 30.4795 16.0799 30.7165 15.9714C31.0565 14.9882 30.9229 14.1769 30.7634 13.1789C30.783 12.4606 30.9347 11.7237 31.0423 11.0125Z"/>
	<path fill="#807C78" d="M30.8752 48.0758L30.7484 48.875L30.375 49.048C29.9986 48.5736 30.0231 47.8263 29.9947 47.2388C29.9237 45.7659 30.0206 44.2649 30.0712 42.7916C30.0819 42.4793 30.0109 41.6341 30.1225 41.375C30.1936 41.21 30.5739 40.8787 30.7075 40.7317L30.8752 48.0758Z"/>
	<path fill="#6F6864" d="M29.4932 91.9494C29.8937 93.3731 29.6933 94.7019 29.9065 96.1218C29.9923 96.6931 30.3809 97.172 30.4982 97.75C31.0914 97.8966 31.0956 97.9176 31.6275 97.625C31.9109 96.4548 31.1994 93.4791 31.8826 92.6609L32.0008 92.9433L32.105 101.474C32.0962 102.106 31.7085 102.632 31.7785 103.264L29.875 103.278C29.8479 102.67 29.9411 102.065 29.5852 101.562L29.4932 91.9494Z"/>
	<path fill="#96928E" d="M32.0008 92.9433C32.3268 92.6478 32.179 90.8598 32.2512 90.3125L32.625 90.3725L32.6351 88.634L32.9459 88.3275L33.2769 103.131L33.2131 105.625L32.875 105.856C32.1403 105.234 32.259 104.173 31.7785 103.264C31.7085 102.632 32.0962 102.106 32.105 101.474L32.0008 92.9433Z"/>
	<path fill="#C6C0B8" d="M30.7075 40.7317L30.9118 32.125L31.1867 32.1729C31.3106 33.619 31.176 35.0235 31.3125 36.4375C31.8189 35.5331 31.7866 32.7462 31.75 31.625C31.7323 31.0814 31.5135 30.3564 31.7512 29.8737C32.173 30.7123 31.9111 33.005 31.9204 33.9864L32.0019 43.6446C32.0164 45.2843 32.2389 47.0879 31.875 48.6897L31.5254 48.9394C31.0447 48.6859 31.0596 48.5871 30.8752 48.0758L30.7075 40.7317Z"/>
	<path fill="#111" d="M32.0757 11.6028C32.7002 13.6426 32.0218 15.8568 32.5625 17.8762C32.6082 17.2167 32.66 16.7607 33.0201 16.1835L33.2958 33.5983L33.4885 47.5354C33.5069 50.683 33.1118 54.4603 33.7072 57.5172L34.0056 72.6292L34.0091 82.0658C33.6198 82.3533 34.1128 84.7002 33.8725 85.25C33.7893 85.4402 33.512 85.7011 33.375 85.8725C32.9305 85.3319 33.1943 82.8365 33.1966 82.007C33.2084 77.6602 33.5813 72.966 33.0336 68.6621L32.0757 11.6028Z"/>
	<defs>
		<linearGradient id="gradient_1" gradientUnits="userSpaceOnUse" x1="41.419834" y1="30.365936" x2="52.889359" y2="19.274729">
			<stop offset="0" stop-color="#181819"/>
			<stop offset="1" stop-color="#6F655F"/>
		</linearGradient>
	</defs>
	<path fill="url(#gradient_1)" d="M33.2643 9.93251C33.2394 9.42211 33.8763 8.45921 34.125 7.97914C34.6146 7.63945 35.1827 7.22492 35.7761 7.11171C37.0597 6.86682 37.7893 7.13908 38.8222 7.85008L40.5204 8.26857C43.0315 8.71081 45.4107 9.68114 47.866 10.3521C52.1453 11.5216 57.0345 12.3316 61.0929 14.0811C62.0073 14.4753 63.3999 15.3629 63.9815 16.1893C64.2867 16.6229 64.6199 17.4003 64.6355 17.9345L65.4539 18.0681L65.5055 18.2484L65.2418 18.646C62.9228 18.197 61.4762 17.6135 59.0456 18.3099C58.9352 19.2978 58.856 19.8071 58 20.4518C57.5689 20.7765 56.8415 20.9177 56.5002 21.3017C57.5139 22.5683 56.2503 24.8762 57.1682 26.2828C57.1711 26.7854 57.0868 27.0466 56.8114 27.4666L56.7259 33.2279L56.7788 38.8646L56.7204 42.5128C56.2665 42.4347 55.7805 42.0967 55.375 41.8775L54.5549 42.2151L54.3492 41.8809L54.1541 43.125L53.7477 43.3204L39.4869 28.7107L39.3177 29.2383C39.9369 29.8863 41.8863 31.8483 41.8788 32.6917L41.8774 32.7538L41.8763 32.8695C41.8582 33.3136 41.2174 34.0789 40.8879 34.3514C38.8075 36.0718 36.7089 37.7761 33.8749 37.5827C33.85 36.5265 33.7593 34.5468 33.2958 33.5983L33.0201 16.1835C33.1738 15.7068 33.0886 14.8367 33.1084 14.3198L33.2643 9.93251Z"/>
	<path fill="#6F6864" d="M56.5002 21.3017C57.5139 22.5683 56.2503 24.8762 57.1682 26.2828C57.1711 26.7854 57.0868 27.0466 56.8114 27.4666C56.0689 27.7173 55.3399 27.9921 54.5538 28.0614C54.7545 27.2742 54.3225 26.9093 54.0992 26.125C54.4399 25.841 56.3185 25.2822 56.3725 25.125C56.5592 24.582 56.0643 24.2785 56.5 23.625C56.3331 22.5294 55.8859 22.7891 55.1913 21.9961L56.5002 21.3017Z"/>
	<path fill="#807C78" d="M54.5538 28.0614C55.3399 27.9921 56.0689 27.7173 56.8114 27.4666L56.7259 33.2279L56.7788 38.8646L56.7204 42.5128C56.2665 42.4347 55.7805 42.0967 55.375 41.8775L54.5549 42.2151L54.3492 41.8809L54.4785 39.8495C54.445 38.1365 53.9073 28.9511 54.5538 28.0614Z"/>
	<path fill="#96928E" d="M56.7259 33.2279L56.7788 38.8646L56.7204 42.5128C56.2665 42.4347 55.7805 42.0967 55.375 41.8775L54.5549 42.2151L54.3492 41.8809L54.4785 39.8495C54.7468 39.1739 54.9474 38.4162 55.5178 37.9451C56.5227 37.1153 56.5902 34.4676 56.7259 33.2279Z"/>
	<path fill="#544D4A" d="M33.2643 9.93251C33.2394 9.42211 33.8763 8.45921 34.125 7.97914C34.6146 7.63945 35.1827 7.22492 35.7761 7.11171C37.0597 6.86682 37.7893 7.13908 38.8222 7.85008C37.875 8.57499 36.2193 10.0058 36.0406 11.2438C35.9399 11.9412 36.0876 12.4483 36.5136 12.993C37.4107 14.14 41.0184 16.5068 42.4818 16.7529L42.625 17.25C43.0317 17.3913 43.4259 17.5276 43.8505 17.6041C43.5728 17.8024 43.4545 17.8664 43.3125 18.1875L43.875 18L44.3082 18.5498L44.1083 18.8209L43.5625 18.661L43.3125 18.9375L44.0625 19.1875L44.1293 19.6714C43.9205 19.6811 36.3802 16.491 35.9248 16.044C35.2501 15.3818 35.9467 14.2283 34.7784 13.5562L34.7379 17.8671C34.019 15.6522 34.3935 12.5763 34.125 10.1892L33.2643 9.93251Z"/>
	<path fill="#B9AFA6" d="M33.2643 9.93251L34.125 10.1892C34.3935 12.5763 34.019 15.6522 34.7379 17.8671C34.8103 20.6706 36.4792 24.0509 37.9168 26.4058C38.3853 27.1731 39.095 27.9229 39.4869 28.7107L39.3177 29.2383C39.9369 29.8863 41.8863 31.8483 41.8788 32.6917L41.8774 32.7538L41.8763 32.8695C41.8582 33.3136 41.2174 34.0789 40.8879 34.3514C38.8075 36.0718 36.7089 37.7761 33.8749 37.5827C33.85 36.5265 33.7593 34.5468 33.2958 33.5983L33.0201 16.1835C33.1738 15.7068 33.0886 14.8367 33.1084 14.3198L33.2643 9.93251Z"/>
	<defs>
		<linearGradient id="gradient_2" gradientUnits="userSpaceOnUse" x1="47.534996" y1="20.5072" x2="51.838398" y2="10.51839">
			<stop offset="0" stop-color="#6D635E"/>
			<stop offset="1" stop-color="#AC968C"/>
		</linearGradient>
	</defs>
	<path fill="url(#gradient_2)" d="M38.8222 7.85008L40.5204 8.26857C43.0315 8.71081 45.4107 9.68114 47.866 10.3521C52.1453 11.5216 57.0345 12.3316 61.0929 14.0811C62.0073 14.4753 63.3999 15.3629 63.9815 16.1893C64.2867 16.6229 64.6199 17.4003 64.6355 17.9345L65.4539 18.0681L65.5055 18.2484L65.2418 18.646C62.9228 18.197 61.4762 17.6135 59.0456 18.3099C58.9352 19.2978 58.856 19.8071 58 20.4518C57.5689 20.7765 56.8415 20.9177 56.5002 21.3017L55.1913 21.9961L54.9738 21.9513C53.6865 22.051 52.8904 21.9186 51.625 22.3656C49.6213 21.8847 49.9929 20.5962 48.6218 19.4773C47.0771 18.2167 44.4913 17.3105 42.6739 16.4099L42.4818 16.7529C41.0184 16.5068 37.4107 14.14 36.5136 12.993C36.0876 12.4483 35.9399 11.9412 36.0406 11.2438C36.2193 10.0058 37.875 8.57499 38.8222 7.85008Z"/>
	<path fill="#E3DDD9" d="M54.9738 21.9513C54.8407 21.392 54.9813 20.9381 55.2774 20.4379C56.065 19.1073 57.6547 18.6804 59.0456 18.3099C58.9352 19.2978 58.856 19.8071 58 20.4518C57.5689 20.7765 56.8415 20.9177 56.5002 21.3017L55.1913 21.9961L54.9738 21.9513Z"/>
	<path fill="#111" d="M45.4839 11.375C47.0831 10.9125 51.5072 12.2498 52.9674 13.0588C53.487 13.3467 54.0319 13.8272 54.1801 14.4268C54.3989 15.3119 54.2332 15.8853 53.7949 16.625L53.6946 16.6537C52.5661 16.9533 47.1145 15.5484 46.0493 14.9164C45.4946 14.5873 45.314 14.1246 45.1662 13.526C44.9375 12.5992 45.0032 12.1554 45.4839 11.375Z"/>
	<path fill="#C6C0B8" d="M59.0456 18.3099C61.4762 17.6135 62.9228 18.197 65.2418 18.646L65.5055 18.2484C68.96 19.6743 73.0446 20.4691 76.6846 21.4056C80.7866 22.4608 85.4292 22.953 87.2538 27.3837C88.1973 29.6749 88.0864 31.8472 88.1647 34.25L88.2955 44.5846L87.9725 44.7865L87.8775 54.5888C87.3283 54.4233 86.4494 54.0444 85.8923 54.0644C84.0851 54.1294 82.1186 54.9132 80.3223 55.1778C79.5151 55.2968 78.055 55.4391 77.285 55.3946C76.7105 55.3613 76.2058 55.1236 75.6341 55.1103C75.3225 55.103 74.1601 55.1867 73.9877 55.0226C73.3441 54.4104 72.3238 54.6976 71.7355 54.1484C71.2955 53.7376 70.8831 53.758 70.4898 53.2029C69.9302 53.1457 69.4789 53.152 69.0885 52.6697C68.4952 51.9367 67.6151 51.7674 67.3591 50.7617C66.3475 50.8269 66.29 49.9744 65.5576 49.8275C65.3818 49.7923 65.1999 49.9463 65.0419 49.8187C64.8141 49.6348 64.6748 49.5667 64.3711 49.5586L64.3372 49.5243C63.8947 49.0848 63.4415 48.9691 62.8259 48.9706C62.2712 48.9719 62.2034 49.3433 61.679 49.4479C61.3957 49.5044 61.0664 49.7325 60.813 49.8745L60.12 49.24C59.7381 49.2684 59.379 49.3555 59.0269 49.1939C58.8573 48.4451 58.7666 47.6032 58.1937 47.0481L57.9726 49.3008L57.3775 49.625L57.4011 49.6834C57.6982 50.4392 57.6375 51.1237 57.58 51.9195L57.3628 51.9896L56.7949 50.3673L56.7204 42.5128L56.7788 38.8646L56.7259 33.2279L56.8114 27.4666C57.0868 27.0466 57.1711 26.7854 57.1682 26.2828C56.2503 24.8762 57.5139 22.5683 56.5002 21.3017C56.8415 20.9177 57.5689 20.7765 58 20.4518C58.856 19.8071 58.9352 19.2978 59.0456 18.3099Z"/>
	<path fill="#111" d="M72.7446 30.1897C73.9699 30.1371 74.6329 30.4001 75.66 31.0383C76.6782 32.7866 77.6065 34.739 77.0647 36.8279C76.8894 37.5039 76.4298 38.189 76.0617 38.777C75.1129 39.1097 74.5207 39.2941 73.5571 38.9243C72.1538 37.6575 71.1123 36.2928 70.8915 34.3663C71.1676 32.5907 71.3735 31.4825 72.7446 30.1897Z"/>
	<defs>
		<linearGradient id="gradient_3" gradientUnits="userSpaceOnUse" x1="67.421623" y1="33.113625" x2="69.743652" y2="48.80584">
			<stop offset="0" stop-color="#8C8A87"/>
			<stop offset="1" stop-color="#ACA69F"/>
		</linearGradient>
	</defs>
	<path fill="url(#gradient_3)" d="M65.9572 33.6967C66.5501 33.3998 66.942 33.2034 67.6262 33.3125L67.6656 33.3941C67.8279 33.7236 68.0276 33.9157 68.3047 34.1505C69.0765 33.8723 69.1714 33.5434 69.625 32.8775C70.0187 33.6469 70.1625 33.8975 70.8915 34.3663C71.1123 36.2928 72.1538 37.6575 73.5571 38.9243C74.5207 39.2941 75.1129 39.1097 76.0617 38.777C76.0233 39.4689 76.0048 40.1566 75.8355 40.8317L75.7238 42.1665C75.7082 43.8738 76.0243 47.0365 74.765 48.2863C74.3523 48.696 73.6519 48.8293 73.0965 48.8164C71.7976 48.7861 70.5827 48.4787 69.306 48.3001C67.0909 47.9904 64.2881 47.8663 62.4992 46.3713L62.4513 46.2611L62.875 45.2501L63.4532 45.022C63.8036 43.7568 64.1921 44.4584 65.0042 44.0961C65.1053 44.0511 65.4624 43.555 65.5522 43.4489C63.8986 42.4569 63.7918 41.5277 62.7749 40.0253L62.848 37.7444C63.0274 36.9843 63.3786 36.2535 63.6813 35.5347C64.1732 34.9812 64.8032 34.7176 65.4588 34.4047C65.6914 34.2144 65.8129 33.955 65.9572 33.6967Z"/>
	<path fill="#96928E" d="M75.8355 40.8317L75.7238 42.1665C75.3962 42.5215 74.9029 42.9352 74.7793 43.406C74.7256 43.6104 74.5825 43.8085 74.4738 43.9892C74.0454 42.6653 73.9027 42.3069 72.7785 41.3534L73.3634 40.8823C73.8911 40.8395 74.2262 40.8599 74.7047 41.0994C74.8031 41.1487 75.0153 40.9174 75.1225 40.875C75.2775 40.8137 75.6545 40.8427 75.8355 40.8317Z"/>
	<path fill="#111" d="M74.4738 43.9892C74.3294 44.3139 74.169 44.6016 73.9617 44.8896C73.5696 45.4344 73.3823 45.3867 72.75 45.4894C72.5579 45.403 72.3751 45.2961 72.2459 45.125C71.7164 44.4238 71.4149 43.6255 71.5101 42.75C71.9251 42.0348 72.0229 41.743 72.7785 41.3534C73.9027 42.3069 74.0454 42.6653 74.4738 43.9892Z"/>
	<path fill="#6F6864" d="M68.9126 41.9136C68.9628 43.4465 68.9943 43.9167 67.9785 45.125C66.757 45.9055 64.792 45.31 63.4532 45.022C63.8036 43.7568 64.1921 44.4584 65.0042 44.0961C65.1053 44.0511 65.4624 43.555 65.5522 43.4489C65.8608 43.6862 66.252 43.6697 66.625 43.6964C67.6135 43.2315 68.2093 42.7479 68.9126 41.9136Z"/>
	<path fill="#121214" d="M65.4588 34.4047C66.9605 34.9587 68.0779 35.86 68.7695 37.3358C69.4167 38.7167 69.3707 40.4813 68.9126 41.9136C68.2093 42.7479 67.6135 43.2315 66.625 43.6964C66.252 43.6697 65.8608 43.6862 65.5522 43.4489C63.8986 42.4569 63.7918 41.5277 62.7749 40.0253L62.848 37.7444C63.0274 36.9843 63.3786 36.2535 63.6813 35.5347C64.1732 34.9812 64.8032 34.7176 65.4588 34.4047Z"/>
	<path fill="#B9AFA6" d="M58.7532 22.0044C58.818 21.7987 58.9037 21.6128 59.068 21.4661C61.1588 19.5999 62.8465 19.9182 65.4667 20.045C66.1518 20.723 67.4424 20.8913 68.3604 21.1396C69.834 21.5381 71.2302 21.9873 72.6255 22.5962C73.3809 22.9258 74.0335 23.1705 74.3775 24C73.9493 25.0705 74.6101 25.3777 74.5625 26.3762L74.0055 26.2402L74.7355 27.6201L75 27.18C75.6222 27.6422 75.5536 28.1874 75.6633 28.9321C75.7711 29.664 75.7913 30.3048 75.66 31.0383C74.6329 30.4001 73.9699 30.1371 72.7446 30.1897C71.3735 31.4825 71.1676 32.5907 70.8915 34.3663C70.1625 33.8975 70.0187 33.6469 69.625 32.8775C69.1714 33.5434 69.0765 33.8723 68.3047 34.1505C68.0276 33.9157 67.8279 33.7236 67.6656 33.3941L67.6262 33.3125C66.942 33.2034 66.5501 33.3998 65.9572 33.6967C65.8129 33.955 65.6914 34.2144 65.4588 34.4047C64.8032 34.7176 64.1732 34.9812 63.6813 35.5347C63.3786 36.2535 63.0274 36.9843 62.848 37.7444L62.7749 40.0253C63.7918 41.5277 63.8986 42.4569 65.5522 43.4489C65.4624 43.555 65.1053 44.0511 65.0042 44.0961C64.1921 44.4584 63.8036 43.7568 63.4532 45.022L62.875 45.2501L62.4513 46.2611C61.5991 45.6573 60.8873 45.0003 60.1535 44.262C59.5878 43.9234 59.0446 43.6043 58.5629 43.1477C58.0083 44.0573 58.3535 45.9089 58.1937 47.0481L57.9726 49.3008L57.3775 49.625L57.4011 49.6834C57.6982 50.4392 57.6375 51.1237 57.58 51.9195L57.3628 51.9896L56.7949 50.3673L56.7204 42.5128L56.7788 38.8646L56.7259 33.2279L56.8114 27.4666C57.0868 27.0466 57.1711 26.7854 57.1682 26.2828C58.3554 25.3711 58.2492 23.4362 58.7532 22.0044Z"/>
	<path fill="#E3DDD9" d="M74.7355 27.6201C74.3064 27.8262 73.8408 27.8698 73.375 27.935C72.1207 27.7396 71.217 26.6821 70.33 25.8492C71.0339 25.115 71.6179 24.1983 72.625 23.9961C73.3906 24.508 73.6708 25.423 74.0055 26.2402L74.7355 27.6201Z"/>
	<path fill="#96928E" d="M68.6479 29.8205C68.8283 30.1888 68.8692 30.3409 69.2166 30.5725C70.6872 29.4474 71.1492 30.0713 72.7446 30.1897C71.3735 31.4825 71.1676 32.5907 70.8915 34.3663C70.1625 33.8975 70.0187 33.6469 69.625 32.8775C69.1714 33.5434 69.0765 33.8723 68.3047 34.1505C68.0276 33.9157 67.8279 33.7236 67.6656 33.3941L67.6262 33.3125C66.942 33.2034 66.5501 33.3998 65.9572 33.6967C65.8129 33.955 65.6914 34.2144 65.4588 34.4047C64.8032 34.7176 64.1732 34.9812 63.6813 35.5347L63.125 34.9791L62.375 35.1225L62.1275 34.75C62.5384 34.1316 63.2145 34.3224 63.7872 33.75C63.901 32.8051 63.5026 32.8269 63.3775 32C63.4566 31.9041 63.528 31.8058 63.5882 31.697C64.0613 30.8425 63.7653 30.1924 63.5369 29.329C64.3695 30.1911 65.0942 31.1211 66.375 31.193C67.5121 30.9568 67.8584 30.6475 68.6479 29.8205Z"/>
	<path fill="#121214" d="M63.1177 23.4855C63.7061 22.7666 64.0099 22.1166 65 22.0163C65.7597 21.9394 66.5272 22.2675 67.0938 22.7536C68.2736 23.7656 68.9108 25.4085 69.0159 26.9468C69.0818 27.9118 69.0264 28.9218 68.6479 29.8205C67.8584 30.6475 67.5121 30.9568 66.375 31.193C65.0942 31.1211 64.3695 30.1911 63.5369 29.329C62.7989 28.3176 62.8636 27.2626 62.7199 26.0348C62.7052 25.1398 62.8964 24.3482 63.1177 23.4855Z"/>
	<defs>
		<linearGradient id="gradient_4" gradientUnits="userSpaceOnUse" x1="66.77813" y1="38.182724" x2="54.291096" y2="30.455406">
			<stop offset="0" stop-color="#8B8580"/>
			<stop offset="1" stop-color="#B6B3AA"/>
		</linearGradient>
	</defs>
	<path fill="url(#gradient_4)" d="M58.7532 22.0044L58.8711 23.1293L59.4837 23.4938L60.0041 22.5266L60.8849 22.375C61.4869 23.1856 61.2111 24.3634 61.1808 25.3664L61.2097 31.7189C61.176 33.8387 61.017 36.1079 61.3269 38.2072C62.1047 38.2074 62.2683 38.312 62.848 37.7444L62.7749 40.0253C63.7918 41.5277 63.8986 42.4569 65.5522 43.4489C65.4624 43.555 65.1053 44.0511 65.0042 44.0961C64.1921 44.4584 63.8036 43.7568 63.4532 45.022L62.875 45.2501L62.4513 46.2611C61.5991 45.6573 60.8873 45.0003 60.1535 44.262C59.5878 43.9234 59.0446 43.6043 58.5629 43.1477C58.0083 44.0573 58.3535 45.9089 58.1937 47.0481L57.9726 49.3008L57.3775 49.625L57.4011 49.6834C57.6982 50.4392 57.6375 51.1237 57.58 51.9195L57.3628 51.9896L56.7949 50.3673L56.7204 42.5128L56.7788 38.8646L56.7259 33.2279L56.8114 27.4666C57.0868 27.0466 57.1711 26.7854 57.1682 26.2828C58.3554 25.3711 58.2492 23.4362 58.7532 22.0044Z"/>
	<path fill="#96928E" d="M61.3269 38.2072C62.1047 38.2074 62.2683 38.312 62.848 37.7444L62.7749 40.0253C62.509 40.4035 62.1661 40.8246 62.0112 41.261C61.9252 41.5034 61.8778 42.0608 61.75 42.2395C61.719 42.2828 61.099 42.4393 61 42.4697C60.4885 42.1029 60.1383 41.8974 59.9794 41.2266C59.9646 41.1643 59.9697 41.1426 59.9741 41.0859C60.8913 40.3076 61.0334 39.3119 61.3269 38.2072Z"/>
	<path fill="#C6C0B8" d="M60.0041 22.5266L60.8849 22.375C61.4869 23.1856 61.2111 24.3634 61.1808 25.3664L61.2097 31.7189C61.176 33.8387 61.017 36.1079 61.3269 38.2072C61.0334 39.3119 60.8913 40.3076 59.9741 41.0859C59.4708 38.9651 59.5182 36.9687 59.4638 34.819L59.3268 27.5372C59.3439 26.1206 59.0765 24.894 59.4837 23.4938L60.0041 22.5266Z"/>
	<path fill="#B9AFA6" d="M56.7788 38.8646C57.1011 36.4374 57.0406 33.97 57.0788 31.5253C57.0997 30.1954 56.9921 28.7957 57.4478 27.5302L57.6774 27.4249C58.6755 29.3224 58.2441 31.4616 58.2155 33.4816L58.2807 39.5982C58.2895 40.121 58.1578 41.3177 58.3256 41.7815C58.5988 42.536 59.631 43.6006 60.1535 44.262C59.5878 43.9234 59.0446 43.6043 58.5629 43.1477C58.0083 44.0573 58.3535 45.9089 58.1937 47.0481L57.9726 49.3008L57.3775 49.625L57.4011 49.6834C57.6982 50.4392 57.6375 51.1237 57.58 51.9195L57.3628 51.9896L56.7949 50.3673L56.7204 42.5128L56.7788 38.8646Z"/>
	<defs>
		<linearGradient id="gradient_5" gradientUnits="userSpaceOnUse" x1="54.090221" y1="84.306389" x2="26.911631" y2="64.289513">
			<stop offset="0" stop-color="#131314"/>
			<stop offset="1" stop-color="#756F6A"/>
		</linearGradient>
	</defs>
	<path fill="url(#gradient_5)" d="M39.4869 28.7107L53.7477 43.3204L54.1541 43.125L54.3492 41.8809L54.5549 42.2151C54.4916 43.1037 54.3845 48.101 54.2292 48.3821C54.7158 52.4086 54.7181 56.5144 54.8906 60.5664L55.3523 70.9345L55.2502 79.5796C55.2424 80.8217 55.0773 82.3027 55.2739 83.5091C54.9406 84.7897 53.7328 85.1857 52.7935 85.9405C47.2225 89.6161 39.8363 93.2391 36.8045 99.4337C36.1469 101.281 35.5146 103.36 35.3565 105.317L35.6476 106.482L36 106.125L36.0443 106.157C36.2098 106.273 36.3504 106.327 36.5455 106.375C36.5516 106.931 36.501 107.537 36.7941 108.026C36.9938 108.359 37.0367 108.777 37.102 109.155L38.0242 110.5L37.7477 111.277L38.1925 111.432C37.9434 111.823 37.6937 112.167 37.3732 112.503C35.7417 111.596 34.8593 110.9 34.1655 109.145L33.2769 103.131L32.9459 88.3275L33.0336 68.6621C33.5813 72.966 33.2084 77.6602 33.1966 82.007C33.1943 82.8365 32.9305 85.3319 33.375 85.8725C33.512 85.7011 33.7893 85.4402 33.8725 85.25C34.1128 84.7002 33.6198 82.3533 34.0091 82.0658L34.0056 72.6292L33.7072 57.5172C33.1118 54.4603 33.5069 50.683 33.4885 47.5354L33.2958 33.5983C33.7593 34.5468 33.85 36.5265 33.8749 37.5827C36.7089 37.7761 38.8075 36.0718 40.8879 34.3514C41.2174 34.0789 41.8582 33.3136 41.8763 32.8695L41.8774 32.7538L41.8788 32.6917C41.8863 31.8483 39.9369 29.8863 39.3177 29.2383L39.4869 28.7107Z"/>
	<path fill="#6F6864" d="M35.3565 105.317L35.6476 106.482L36 106.125L36.0443 106.157C36.2098 106.273 36.3504 106.327 36.5455 106.375C36.5516 106.931 36.501 107.537 36.7941 108.026C36.9938 108.359 37.0367 108.777 37.102 109.155L38.0242 110.5L37.7477 111.277C37.1005 110.926 36.5601 110.574 36.0801 110.013C34.8915 108.624 35.2194 107.051 35.3565 105.317Z"/>
	<path fill="#807C78" d="M37.5618 51.0161L37.5 49.375L37.7752 49.4228L37.9375 50.6262C38.2685 50.3136 38.3185 50.0713 38.375 49.6275L38.9182 49.7198L41.3133 55.866C41.6672 57.9445 42.116 60.3379 41.9533 62.4555C41.7909 64.5701 42.2288 66.7032 41.8985 68.8825L41.6875 68.3738C41.4968 68.8315 41.3307 69.0075 41.5 69.5L41.834 69.75C41.2479 73.1867 39.3034 76.2308 37.625 79.2455C37.5102 78.7088 37.5834 78.2214 37.1214 77.9122L37.0885 78.0209C36.8355 78.8096 35.5835 79.8221 34.8821 80.159L34.2839 80.4381C34.2089 80.9692 34.1749 81.5558 34.0091 82.0658L34.0056 72.6292C34.3083 73.2821 34.3377 73.9035 34.3829 74.6102C34.6396 74.4129 35.3559 73.994 35.5023 73.7498C35.5944 73.5962 35.5425 73.2883 35.6275 73.125C35.8047 72.7845 36.4529 72.2795 36.736 71.9482C37.6467 70.8828 38.3293 69.5893 38.7209 68.2469C39.1488 66.7805 39.1817 65.3903 39.3088 63.8861C39.675 59.5534 39.7017 54.9288 37.5618 51.0161Z"/>
	<defs>
		<linearGradient id="gradient_6" gradientUnits="userSpaceOnUse" x1="37.915504" y1="59.2771" x2="32.895111" y2="59.737881">
			<stop offset="0" stop-color="#9E9A96"/>
			<stop offset="1" stop-color="#BCB5B4"/>
		</linearGradient>
	</defs>
	<path fill="url(#gradient_6)" d="M33.7072 57.5172C33.9152 54.4408 33.6474 51.3278 33.7647 48.241C33.7914 47.5361 34.0566 46.9069 34.1005 46.25C34.1332 45.76 33.8847 45.4869 34.0097 44.9299C34.4705 45.3335 34.5504 46.0134 34.8168 46.5497L37.4273 52.0832L37.5618 51.0161C39.7017 54.9288 39.675 59.5534 39.3088 63.8861C39.1817 65.3903 39.1488 66.7805 38.7209 68.2469C38.3293 69.5893 37.6467 70.8828 36.736 71.9482C36.4529 72.2795 35.8047 72.7845 35.6275 73.125C35.5425 73.2883 35.5944 73.5962 35.5023 73.7498C35.3559 73.994 34.6396 74.4129 34.3829 74.6102C34.3377 73.9035 34.3083 73.2821 34.0056 72.6292L33.7072 57.5172Z"/>
	<defs>
		<linearGradient id="gradient_7" gradientUnits="userSpaceOnUse" x1="46.166817" y1="49.416199" x2="38.392796" y2="34.362877">
			<stop offset="0" stop-color="#706963"/>
			<stop offset="1" stop-color="#AA9B8E"/>
		</linearGradient>
	</defs>
	<path fill="url(#gradient_7)" d="M39.4869 28.7107L53.7477 43.3204L54.1541 43.125L54.3492 41.8809L54.5549 42.2151C54.4916 43.1037 54.3845 48.101 54.2292 48.3821L53.8897 48.1153L53.9004 48.0613C54.0201 47.3948 53.975 46.5415 53.875 45.8725C52.6753 45.6189 47.6476 45.9882 47.2143 45.2748C46.9702 44.8729 46.9797 44.214 46.9402 43.7512C46.4707 43.9835 45.272 43.6041 44.6644 43.6274C43.7517 43.6624 41.5958 44.5964 40.8866 45.1918C40.5887 46.1377 39.9975 47.5215 40.0031 48.4794C40.007 49.1374 40.4046 49.9287 40.5727 50.5735C40.9943 52.1904 41.4539 54.2129 41.3133 55.866L38.9182 49.7198L38.375 49.6275C38.3185 50.0713 38.2685 50.3136 37.9375 50.6262L37.7752 49.4228L37.5 49.375L37.5618 51.0161L37.4273 52.0832L34.8168 46.5497C34.5504 46.0134 34.4705 45.3335 34.0097 44.9299C33.8847 45.4869 34.1332 45.76 34.1005 46.25C34.0566 46.9069 33.7914 47.5361 33.7647 48.241C33.6474 51.3278 33.9152 54.4408 33.7072 57.5172C33.1118 54.4603 33.5069 50.683 33.4885 47.5354L33.2958 33.5983C33.7593 34.5468 33.85 36.5265 33.8749 37.5827C36.7089 37.7761 38.8075 36.0718 40.8879 34.3514C41.2174 34.0789 41.8582 33.3136 41.8763 32.8695L41.8774 32.7538L41.8788 32.6917C41.8863 31.8483 39.9369 29.8863 39.3177 29.2383L39.4869 28.7107Z"/>
	<defs>
		<linearGradient id="gradient_8" gradientUnits="userSpaceOnUse" x1="76.053947" y1="112.63539" x2="69.949921" y2="45.906876">
			<stop offset="0" stop-color="#858382"/>
			<stop offset="1" stop-color="#C1BDB7"/>
		</linearGradient>
	</defs>
	<path fill="url(#gradient_8)" d="M54.5549 42.2151L55.375 41.8775C55.7805 42.0967 56.2665 42.4347 56.7204 42.5128L56.7949 50.3673L57.3628 51.9896L57.58 51.9195C57.6375 51.1237 57.6982 50.4392 57.4011 49.6834L57.3775 49.625L57.9726 49.3008L58.1937 47.0481C58.7666 47.6032 58.8573 48.4451 59.0269 49.1939C59.379 49.3555 59.7381 49.2684 60.12 49.24L60.813 49.8745C61.0664 49.7325 61.3957 49.5044 61.679 49.4479C62.2034 49.3433 62.2712 48.9719 62.8259 48.9706C63.4415 48.9691 63.8947 49.0848 64.3372 49.5243L64.3711 49.5586C64.6748 49.5667 64.8141 49.6348 65.0419 49.8187C65.1999 49.9463 65.3818 49.7923 65.5576 49.8275C66.29 49.9744 66.3475 50.8269 67.3591 50.7617C67.6151 51.7674 68.4952 51.9367 69.0885 52.6697C69.4789 53.152 69.9302 53.1457 70.4898 53.2029C70.8831 53.758 71.2955 53.7376 71.7355 54.1484C72.3238 54.6976 73.3441 54.4104 73.9877 55.0226C74.1601 55.1867 75.3225 55.103 75.6341 55.1103C76.2058 55.1236 76.7105 55.3613 77.285 55.3946C78.055 55.4391 79.5151 55.2968 80.3223 55.1778C82.1186 54.9132 84.0851 54.1294 85.8923 54.0644C86.4494 54.0444 87.3283 54.4233 87.8775 54.5888L87.9725 44.7865L88.2955 44.5846C88.5333 45.9269 88.4409 47.377 88.4534 48.7382L88.5161 55.8852L89.0265 75.3361C89.0417 76.459 88.8026 77.5782 88.8121 78.7074L89.0771 92.75C89.2509 96.9236 89.5132 101.203 89.253 105.391C89.1426 107.168 88.92 109.019 87.8862 110.526C87.3337 111.331 86.2717 112.118 85.2973 112.288C81.4408 112.962 77.05 112.661 73.1225 112.767L38.1496 112.97L38.1701 112.752L37.3732 112.503C37.6937 112.167 37.9434 111.823 38.1925 111.432L37.7477 111.277L38.0242 110.5L37.102 109.155C37.0367 108.777 36.9938 108.359 36.7941 108.026C36.501 107.537 36.5516 106.931 36.5455 106.375C36.3504 106.327 36.2098 106.273 36.0443 106.157L36 106.125L35.6476 106.482L35.3565 105.317C35.5146 103.36 36.1469 101.281 36.8045 99.4337C39.8363 93.2391 47.2225 89.6161 52.7935 85.9405C53.7328 85.1857 54.9406 84.7897 55.2739 83.5091C55.0773 82.3027 55.2424 80.8217 55.2502 79.5796L55.3523 70.9345L54.8906 60.5664C54.7181 56.5144 54.7158 52.4086 54.2292 48.3821C54.3845 48.101 54.4916 43.1037 54.5549 42.2151Z"/>
	<path fill="#C6C0B8" d="M57.2412 110.604C57.9258 110.092 58.5524 110.082 59.25 109.677C60.2553 110.032 60.7498 111.11 61.6745 111.625L61.5195 112.037C61.1455 112.122 60.4685 112.183 60.1658 112.392C58.6617 111.987 58.3179 111.672 57.2412 110.604Z"/>
	<path fill="#96928E" d="M71.5878 63.125C72.5638 62.7523 74.4158 63.1433 75.4728 63.2863C76.45 63.4186 76.6089 63.4926 77.1873 64.25C76.95 64.9047 76.4205 65.6852 76.278 66.3182C76.2494 66.4453 76.4942 67.0785 76.5394 67.2325C77.0481 68.9683 77.6949 69.5358 77.0437 71.375C76.8957 71.6553 76.6541 71.9269 76.4628 72.1825C75.3235 72.391 73.4075 72.2187 72.375 71.689C71.808 70.9109 71.5028 70.0371 71.2548 69.1139C70.6779 66.9664 70.4265 65.1369 71.5878 63.125Z"/>
	<defs>
		<linearGradient id="gradient_9" gradientUnits="userSpaceOnUse" x1="66.847923" y1="71.512489" x2="44.984932" y2="56.119831">
			<stop offset="0" stop-color="#445B47"/>
			<stop offset="1" stop-color="#BC9B9B"/>
		</linearGradient>
	</defs>
	<path fill="url(#gradient_9)" d="M54.5549 42.2151L55.375 41.8775C55.7805 42.0967 56.2665 42.4347 56.7204 42.5128L56.7949 50.3673L57.5242 86.5692L57.01 86.612C56.4725 86.2353 56.3619 85.574 56.1276 84.9685C56.2097 84.2691 56.207 83.8814 55.8707 83.2385L55.2739 83.5091C55.0773 82.3027 55.2424 80.8217 55.2502 79.5796L55.3523 70.9345L54.8906 60.5664C54.7181 56.5144 54.7158 52.4086 54.2292 48.3821C54.3845 48.101 54.4916 43.1037 54.5549 42.2151Z"/>
	<defs>
		<linearGradient id="gradient_10" gradientUnits="userSpaceOnUse" x1="50.301815" y1="113.7714" x2="45.010498" y2="95.583466">
			<stop offset="0" stop-color="#1A181A"/>
			<stop offset="1" stop-color="#6E6B67"/>
		</linearGradient>
	</defs>
	<path fill="url(#gradient_10)" d="M55.2739 83.5091L55.8707 83.2385C56.207 83.8814 56.2097 84.2691 56.1276 84.9685C56.3619 85.574 56.4725 86.2353 57.01 86.612L57.5242 86.5692C57.8406 87.438 57.6752 88.6795 57.6761 89.6021L57.7312 95.7913L57.7861 98.0017C57.7951 99.8037 57.6933 101.734 57.9463 103.516C58.1558 104.991 59.5935 107.917 59.125 109.215C58.3908 109.608 56.9822 109.007 56.7156 109.5C56.8418 109.8 57.0109 110.394 57.2412 110.604C58.3179 111.672 58.6617 111.987 60.1658 112.392C58.825 113.083 55.5905 112.717 54.0295 112.727C48.7934 112.763 43.3851 113.084 38.1701 112.752L37.3732 112.503C37.6937 112.167 37.9434 111.823 38.1925 111.432L37.7477 111.277L38.0242 110.5L37.102 109.155C37.0367 108.777 36.9938 108.359 36.7941 108.026C36.501 107.537 36.5516 106.931 36.5455 106.375C36.3504 106.327 36.2098 106.273 36.0443 106.157L36 106.125L35.6476 106.482L35.3565 105.317C35.5146 103.36 36.1469 101.281 36.8045 99.4337C39.8363 93.2391 47.2225 89.6161 52.7935 85.9405C53.7328 85.1857 54.9406 84.7897 55.2739 83.5091Z"/>
	<path fill="#6F6864" d="M55.3199 93.6302C55.4986 94.447 55.6399 95.3066 55.9234 96.093C56.5434 96.0629 57.1358 95.9698 57.7312 95.7913L57.7861 98.0017C57.1716 98.0791 56.4721 98.2447 55.875 98.0363C55.1301 97.013 55.3288 94.8611 55.3199 93.6302Z"/>
	<defs>
		<linearGradient id="gradient_11" gradientUnits="userSpaceOnUse" x1="58.249519" y1="91.095596" x2="54.081348" y2="90.149689">
			<stop offset="0" stop-color="#6C6B64"/>
			<stop offset="1" stop-color="#AEA399"/>
		</linearGradient>
	</defs>
	<path fill="url(#gradient_11)" d="M55.3199 93.6302C55.3866 91.1561 54.3578 87.5298 55.3738 85.1875L56.1276 84.9685C56.3619 85.574 56.4725 86.2353 57.01 86.612L57.5242 86.5692C57.8406 87.438 57.6752 88.6795 57.6761 89.6021L57.7312 95.7913C57.1358 95.9698 56.5434 96.0629 55.9234 96.093C55.6399 95.3066 55.4986 94.447 55.3199 93.6302Z"/>
	<defs>
		<linearGradient id="gradient_12" gradientUnits="userSpaceOnUse" x1="47.016659" y1="101.3036" x2="45.367538" y2="98.892601">
			<stop offset="0" stop-color="#5F5C5A"/>
			<stop offset="1" stop-color="#7A7673"/>
		</linearGradient>
	</defs>
	<path fill="url(#gradient_12)" d="M52.7935 85.9405L54 85.9386C54.3595 86.6234 53.8681 87.7501 53.6969 88.5274C53.1204 90.5248 51.3879 94.8251 52.4839 96.8137L52.5146 96.8688C52.5841 97.0007 52.5521 97.1139 52.5239 97.2512L52.375 97.989L52.325 98.0079C51.5515 98.3074 51.0771 98.8974 50.3811 99.3185C49.2685 99.9918 48.0789 100.518 46.9969 101.224C45.7573 102.033 44.706 103.05 43.4997 103.86C42.6911 104.403 41.7369 104.738 40.8738 105.188L41.8274 105.3C41.7138 105.613 41.6769 105.597 41.375 105.75L41.6625 106.01L41.0696 106.647L37.875 106.526C37.0895 107.33 37.1423 108.055 37.102 109.155C37.0367 108.777 36.9938 108.359 36.7941 108.026C36.501 107.537 36.5516 106.931 36.5455 106.375C36.3504 106.327 36.2098 106.273 36.0443 106.157L36 106.125L35.6476 106.482L35.3565 105.317C35.5146 103.36 36.1469 101.281 36.8045 99.4337C39.8363 93.2391 47.2225 89.6161 52.7935 85.9405Z"/>
	<defs>
		<linearGradient id="gradient_13" gradientUnits="userSpaceOnUse" x1="48.746777" y1="93.5793" x2="43.607498" y2="89.92276">
			<stop offset="0" stop-color="#A8A19C"/>
			<stop offset="1" stop-color="#DEDBCF"/>
		</linearGradient>
	</defs>
	<path fill="url(#gradient_13)" d="M52.7935 85.9405L54 85.9386C54.3595 86.6234 53.8681 87.7501 53.6969 88.5274L52.8775 88.375L52.625 87.8775C52.4887 88.0386 51.9915 88.5318 51.9947 88.7058C52.0187 90.0304 50.579 92.2674 49.625 93.2182C48.7037 94.1364 47.3406 94.6179 46.25 95.2994L41.4648 98.375C40.3029 99.136 39.2423 100.139 37.7422 100.048L37.375 100.015C37.2126 99.8259 37.0275 99.5398 36.8045 99.4337C39.8363 93.2391 47.2225 89.6161 52.7935 85.9405Z"/>
</svg>
