<?xml version="1.0" encoding="utf-8" ?>
<svg xmlns="http://www.w3.org/2000/svg" xmlns:xlink="http://www.w3.org/1999/xlink" width="116" height="116">
	<path fill="#39383A" d="M84.4199 43.4362C84.7048 42.794 84.8026 42.3554 85.375 41.9352L86.7522 42.1993C86.7287 43.6474 86.7983 45.1629 86.4191 46.5706C85.6267 45.7736 84.9689 44.4201 84.4199 43.4362Z"/>
	<path fill="#524D56" d="M86.7076 33.8886L86.9564 33.9076L86.7522 42.1993L85.375 41.9352C84.8026 42.3554 84.7048 42.794 84.4199 43.4362C83.868 42.5381 82.6901 41.7407 82.264 40.875C82.1474 40.6381 82.2377 39.6337 82.2309 39.3147C83.0169 39.5192 83.5276 39.8879 84.3645 39.625C84.8171 38.8804 85.0818 38.0269 85.375 37.21L86.6138 36.875L86.7076 33.8886Z"/>
	<path fill="#707073" d="M85.1395 33.4721C85.8139 33.3435 85.9962 33.2003 86.5928 33.5891L86.7076 33.8886L86.6138 36.875L85.375 37.21C85.0818 38.0269 84.8171 38.8804 84.3645 39.625C83.5276 39.8879 83.0169 39.5192 82.2309 39.3147C81.8877 38.6442 81.9671 37.9404 81.9896 37.2092C83.2022 36.0102 84.0106 34.7087 85.1395 33.4721Z"/>
	<path fill="#28282B" d="M21.3193 13.4022C21.7973 14.6529 22.7407 15.773 24.0091 16.3188L24.0619 16.3399C24.565 17.2318 24.6888 18.3859 24.41 19.3759C24.3416 19.6187 24.1934 19.7861 24.0125 19.9535L23.9806 20.1552C22.535 19.6299 20.1789 19.0058 19.1376 17.875C18.9373 16.2872 20.4529 14.6514 21.3193 13.4022Z"/>
	<path fill="#5B5B5C" d="M78.7651 23.0948C79.7148 23.1986 80.2673 23.1781 80.9145 23.9761C81.768 25.0285 82.527 26.1534 83.4274 27.1693C84.162 27.9982 86.643 30.0557 86.8569 31.003C87.0315 31.7759 87.0033 33.1015 86.9564 33.9076L86.7076 33.8886L86.5928 33.5891C85.9962 33.2003 85.8139 33.3435 85.1395 33.4721L84.2941 33.5067C83.4249 32.3845 78.8097 25.6965 78.6302 24.625C78.5631 24.2246 78.7276 23.5206 78.7651 23.0948Z"/>
	<path fill="#9B9B9E" d="M97.1024 44.7575C97.9243 44.2472 98.7356 43.7491 99.4785 43.125C99.8933 40.8458 97.9008 37.2449 97.3383 35.0303C97.8943 34.679 98.0239 34.6487 98.683 34.625C101.119 35.9303 102.119 39.2868 102.868 41.7604C103.14 42.6571 104.029 44.5846 104.024 45.4425C104.017 46.7911 103.132 48.7925 102.743 50.148L99.909 60.371L93.1665 84.765L90.9795 92.6872C90.3744 94.9283 89.811 97.2973 88.7083 99.3571C88.075 100.54 87.4144 101.029 86.2173 101.539L100.704 48.625L100.5 48.2509L99.9817 48.5902L99.0093 48.1229C99.2043 47.635 100.046 47.1672 100.447 46.75L100.375 46.0508L97.1024 44.7575Z"/>
	<defs>
		<linearGradient id="gradient_0" gradientUnits="userSpaceOnUse" x1="99.647682" y1="48.325886" x2="81.863403" y2="47.449306">
			<stop offset="0" stop-color="#7F7E83"/>
			<stop offset="1" stop-color="#939697"/>
		</linearGradient>
	</defs>
	<path fill="url(#gradient_0)" d="M73.2568 38.5801C74.9016 38.5826 76.1007 38.2545 77.6884 37.9387C79.1127 37.6554 79.9368 37.6891 81.25 36.8988L81.9896 37.2092C81.9671 37.9404 81.8877 38.6442 82.2309 39.3147C82.2377 39.6337 82.1474 40.6381 82.264 40.875C82.6901 41.7407 83.868 42.5381 84.4199 43.4362C84.9689 44.4201 85.6267 45.7736 86.4191 46.5706L86.7218 46.7995C87.5227 47.0551 88.3621 47.3139 89.1973 47.4205C90.0451 47.5287 90.932 47.2105 91.75 47.0241C94.0082 46.5094 95.2263 46.1841 97.1024 44.7575L100.375 46.0508L100.447 46.75C100.046 47.1672 99.2043 47.635 99.0093 48.1229L99.9817 48.5902C99.5409 49.089 98.9926 49.7281 98.3812 50.0159C96.9107 50.7079 94.9776 50.9535 93.3801 51.3291C90.9726 51.8952 88.1663 52.8148 85.7108 52.9491L85.0795 52.9187L81.9495 52.3124L81.9099 52.2135C81.3891 52.269 80.898 52.2853 80.375 52.2553L79.8505 51.6116C78.7011 48.2249 75.6596 45.126 73.9031 41.9844C73.4998 41.263 73.0507 40.9624 72.9316 40.0868L68.7092 42.465C67.8572 42.0144 67.5837 41.8931 66.625 41.9286C66.2708 42.3564 66.0267 42.7745 65.7821 43.2679L65.8775 41.875C66.2367 41.6703 66.5839 41.473 66.9772 41.3406L67.0625 41.3125L67.25 40.875C66.28 40.7349 65.5031 40.5458 64.5839 40.1923C63.9879 40.0428 63.6257 40.0048 63.0209 40.1652L62.9381 39.9802L63.629 39.1243C64.2552 38.3756 65.0984 37.7504 65.8386 37.114C67.7895 38.3615 68.838 39.2215 71.2909 39.0616L73.2568 38.5801Z"/>
	<path fill="#B9B6BD" d="M72.9316 40.0868C73.6332 39.7808 74.1971 39.3272 74.9487 39.6261C75.0839 39.6798 75.2127 39.7618 75.3351 39.8391C76.4561 42.1087 77.7998 44.2607 79.1976 46.3693C79.6193 47.0054 80.137 47.9543 80.882 48.232L81.4094 49.1551L81.0244 49.75C81.154 50.3101 81.1675 50.3787 81.6657 50.6843C82.3666 51.1141 83.3251 51.0542 84.119 51.0707C87.7876 51.1466 91.4192 50.2388 94.957 49.3375C96.2804 49.0003 97.8154 48.8 99.0093 48.1229L99.9817 48.5902C99.5409 49.089 98.9926 49.7281 98.3812 50.0159C96.9107 50.7079 94.9776 50.9535 93.3801 51.3291C90.9726 51.8952 88.1663 52.8148 85.7108 52.9491L85.0795 52.9187L81.9495 52.3124L81.9099 52.2135C81.3891 52.269 80.898 52.2853 80.375 52.2553L79.8505 51.6116C78.7011 48.2249 75.6596 45.126 73.9031 41.9844C73.4998 41.263 73.0507 40.9624 72.9316 40.0868Z"/>
	<path fill="#1D1D1F" d="M73.2568 38.5801C74.9016 38.5826 76.1007 38.2545 77.6884 37.9387C79.1127 37.6554 79.9368 37.6891 81.25 36.8988L81.9896 37.2092C81.9671 37.9404 81.8877 38.6442 82.2309 39.3147C82.2377 39.6337 82.1474 40.6381 82.264 40.875C82.6901 41.7407 83.868 42.5381 84.4199 43.4362C84.9689 44.4201 85.6267 45.7736 86.4191 46.5706L86.7218 46.7995C85.8323 47.4572 86.2623 48.365 84.9871 48.4867L84.6864 48.166C84.6297 48.1816 84.5844 48.1985 84.5262 48.201C83.5954 48.2418 82.9787 47.7391 82.375 47.1275L81.625 47.1275L80.882 48.232C80.137 47.9543 79.6193 47.0054 79.1976 46.3693C77.7998 44.2607 76.4561 42.1087 75.3351 39.8391C75.2127 39.7618 75.0839 39.6798 74.9487 39.6261C74.1971 39.3272 73.6332 39.7808 72.9316 40.0868L68.7092 42.465C67.8572 42.0144 67.5837 41.8931 66.625 41.9286C66.2708 42.3564 66.0267 42.7745 65.7821 43.2679L65.8775 41.875C66.2367 41.6703 66.5839 41.473 66.9772 41.3406L67.0625 41.3125L67.25 40.875C66.28 40.7349 65.5031 40.5458 64.5839 40.1923C63.9879 40.0428 63.6257 40.0048 63.0209 40.1652L62.9381 39.9802L63.629 39.1243C64.2552 38.3756 65.0984 37.7504 65.8386 37.114C67.7895 38.3615 68.838 39.2215 71.2909 39.0616L73.2568 38.5801Z"/>
	<path fill="#39383A" d="M65.8386 37.114C67.7895 38.3615 68.838 39.2215 71.2909 39.0616C70.6196 39.2376 69.8701 39.411 69.2487 39.7222C68.9706 39.8614 67.9543 40.6247 67.7593 40.6379C66.7355 40.7074 65.8271 39.9616 64.5839 40.1923C63.9879 40.0428 63.6257 40.0048 63.0209 40.1652L62.9381 39.9802L63.629 39.1243C64.2552 38.3756 65.0984 37.7504 65.8386 37.114Z"/>
	<path fill="#BF4E40" d="M75.3351 39.8391C78.8759 40.3296 81.4993 41.296 83.6972 44.2162C84.6463 45.4773 85.0297 46.9245 84.9871 48.4867L84.6864 48.166C84.6297 48.1816 84.5844 48.1985 84.5262 48.201C83.5954 48.2418 82.9787 47.7391 82.375 47.1275L81.625 47.1275L80.882 48.232C80.137 47.9543 79.6193 47.0054 79.1976 46.3693C77.7998 44.2607 76.4561 42.1087 75.3351 39.8391Z"/>
	<defs>
		<linearGradient id="gradient_1" gradientUnits="userSpaceOnUse" x1="74.013252" y1="23.108034" x2="68.704941" y2="35.188576">
			<stop offset="0" stop-color="#8E8D90"/>
			<stop offset="1" stop-color="#B7B6B8"/>
		</linearGradient>
	</defs>
	<path fill="url(#gradient_1)" d="M75.2114 22.5171L75.471 21.9776C76.2686 22.8205 77.161 23.0827 78.3399 23.1203C78.4837 23.1248 78.6258 23.1365 78.7651 23.0948C78.7276 23.5206 78.5631 24.2246 78.6302 24.625C78.8097 25.6965 83.4249 32.3845 84.2941 33.5067L85.1395 33.4721C84.0106 34.7087 83.2022 36.0102 81.9896 37.2092L81.25 36.8988C79.9368 37.6891 79.1127 37.6554 77.6884 37.9387C76.1007 38.2545 74.9016 38.5826 73.2568 38.5801L71.2909 39.0616C68.838 39.2215 67.7895 38.3615 65.8386 37.114L65.7897 36.8664C65.3273 36.4891 64.9606 36.3544 64.6557 35.8017C64.1598 34.0674 61.3665 31.5364 59.9336 30.4448C59.2634 30.7365 58.7403 30.8626 58.0091 30.8843L57.4918 30.7666L57.2722 31.0931C56.9656 31.387 56.4606 31.7593 56.2618 32.1263C55.4716 32.0488 54.762 31.9024 54.0682 31.4961C53.4508 31.1346 53.1299 30.6122 52.3561 30.5708L52.5592 29.5567C52.9624 28.2879 53.1309 27.6638 54.3103 26.9389C54.7921 26.6116 54.9197 25.9179 55.3138 25.625C55.4954 25.49 56.1668 25.3954 56.4158 25.3283C57.1642 25.3316 57.9012 25.1757 58.6361 25.0486L59.1619 25.0563L69.3964 23.4153C71.0349 23.1702 72.7054 23.1621 74.3028 22.6943C74.4648 22.5577 74.9879 22.5456 75.2114 22.5171Z"/>
	<path fill="#8C8B8E" d="M73.199 32.4682L73.0175 32.8734C72.8439 32.9322 72.6667 32.9836 72.4829 32.9971C71.9395 33.0371 71.2952 32.7982 70.8872 32.4556C70.7102 32.307 70.7158 31.5147 70.6913 31.25C71.2545 30.7772 71.3464 30.6777 72.1137 30.6349L72.2789 31.1039L73.199 32.4682Z"/>
	<path fill="#B9B6BD" d="M72.2789 31.1039C73.6085 30.4559 74.8964 30.9463 76.25 30.4814L76.875 30.7214L76.9952 31.625C75.7841 32.5534 74.4647 31.8026 73.199 32.4682L72.2789 31.1039Z"/>
	<path fill="#B9B6BD" d="M64.968 33.6025L65.9375 34.0625L65.9806 34.0363C66.7743 33.5672 67.5846 33.6151 68.3471 33.2372C67.9731 33.0438 67.7414 32.925 67.5625 32.5301C68.8897 32.8616 70.8094 34.8404 71.6092 35.9406C70.5415 35.9267 67.7586 35.6067 66.9592 36.2001L66.7295 36.2487C66.7412 35.1919 65.6732 34.3288 64.968 33.6025Z"/>
	<path fill="#524D56" d="M58.6361 25.0486L59.1619 25.0563L59.9873 26.125C60.7959 26.1675 61.5363 26.2846 62.3239 26.4712L57.9406 26.875C57.7125 27.4725 57.8334 27.6261 58.0288 28.212L56.2689 28.0828C55.5358 27.8189 54.9423 27.384 54.3103 26.9389C54.7921 26.6116 54.9197 25.9179 55.3138 25.625C55.4954 25.49 56.1668 25.3954 56.4158 25.3283C57.1642 25.3316 57.9012 25.1757 58.6361 25.0486Z"/>
	<path fill="#D2D1D0" d="M59.0682 29.2961L59.625 28.832C61.3083 29.135 63.6498 32.4389 64.968 33.6025C65.6732 34.3288 66.7412 35.1919 66.7295 36.2487L65.7897 36.8664C65.3273 36.4891 64.9606 36.3544 64.6557 35.8017C64.1598 34.0674 61.3665 31.5364 59.9336 30.4448L59.0682 29.2961Z"/>
	<path fill="#844994" d="M72.3729 36.362C73.3248 35.9402 74.4948 35.8522 75.5192 35.6839L73.8751 36.5699L73.9248 36.5872C74.1523 36.6922 74.4326 37.0129 74.6238 37.1875L74.625 37.6548L73.2568 38.5801L71.2909 39.0616C68.838 39.2215 67.7895 38.3615 65.8386 37.114L65.7897 36.8664L66.7295 36.2487L66.9592 36.2001L69.8524 36.2472L72.3729 36.362Z"/>
	<path fill="#010101" d="M54.3103 26.9389C54.9423 27.384 55.5358 27.8189 56.2689 28.0828L58.0288 28.212L59.0682 29.2961L59.9336 30.4448C59.2634 30.7365 58.7403 30.8626 58.0091 30.8843L57.4918 30.7666L57.2722 31.0931C56.9656 31.387 56.4606 31.7593 56.2618 32.1263C55.4716 32.0488 54.762 31.9024 54.0682 31.4961C53.4508 31.1346 53.1299 30.6122 52.3561 30.5708L52.5592 29.5567C52.9624 28.2879 53.1309 27.6638 54.3103 26.9389Z"/>
	<path fill="#39383A" d="M56.2689 28.0828L58.0288 28.212L59.0682 29.2961L59.9336 30.4448C59.2634 30.7365 58.7403 30.8626 58.0091 30.8843L57.4918 30.7666C57.4887 29.7532 56.9015 28.8277 56.2689 28.0828Z"/>
	<path fill="#2E2F32" d="M52.5592 29.5567C54.2242 30.1565 55.4313 31.0051 57.2722 31.0931C56.9656 31.387 56.4606 31.7593 56.2618 32.1263C55.4716 32.0488 54.762 31.9024 54.0682 31.4961C53.4508 31.1346 53.1299 30.6122 52.3561 30.5708L52.5592 29.5567Z"/>
	<path fill="#4A4054" d="M84.2941 33.5067L85.1395 33.4721C84.0106 34.7087 83.2022 36.0102 81.9896 37.2092L81.25 36.8988C79.9368 37.6891 79.1127 37.6554 77.6884 37.9387C76.1007 38.2545 74.9016 38.5826 73.2568 38.5801L74.625 37.6548L74.6238 37.1875C74.4326 37.0129 74.1523 36.6922 73.9248 36.5872L73.8751 36.5699L75.5192 35.6839L80.7903 34.5502C81.9624 34.2929 83.2518 34.1221 84.2941 33.5067Z"/>
	<path fill="#1D1D1F" d="M74.3028 22.6943C74.4648 22.5577 74.9879 22.5456 75.2114 22.5171L75.2488 22.5642C75.7415 23.1753 76.2276 23.0748 76.7246 23.5L76.4968 24.125C73.9446 25.085 70.5581 25.1543 67.8249 25.6645C66.5535 25.9019 63.5431 26.8245 62.3239 26.4712C61.5363 26.2846 60.7959 26.1675 59.9873 26.125L59.1619 25.0563L69.3964 23.4153C71.0349 23.1702 72.7054 23.1621 74.3028 22.6943Z"/>
	<defs>
		<linearGradient id="gradient_2" gradientUnits="userSpaceOnUse" x1="85.650391" y1="105.09297" x2="83.104988" y2="50.272858">
			<stop offset="0" stop-color="#343437"/>
			<stop offset="1" stop-color="#564F5B"/>
		</linearGradient>
	</defs>
	<path fill="url(#gradient_2)" d="M99.9817 48.5902L100.5 48.2509L100.704 48.625L86.2173 101.539C83.5931 103.517 80.6716 104.327 77.5947 105.343C77.0059 105.537 75.8435 106.081 75.2627 106.089C74.4545 105.85 73.1594 106.435 72.2978 106.531C71.022 106.673 69.6855 106.641 68.4015 106.665L73.614 84.5237C74.2963 84.0381 74.8971 84.0687 75.704 84.0737C76.2388 84.0221 77.3872 83.0861 77.8856 82.7679L78.6592 81.8299C78.4351 80.6197 78.9876 79.8744 78.7395 78.7618L77.5836 78.0597L76.625 77.388C76.3664 76.465 76.5538 76.1363 76.8176 75.2317L76.6275 74.25L76.313 74.1C76.2513 73.3963 76.6083 72.3558 76.7629 71.6562C77.2792 69.3183 77.9653 67.0731 78.3373 64.7003L79.6463 59.6778L79.7506 58.9891L80.9387 54.1718C81.0124 53.8805 81.153 52.9358 81.2992 52.75C81.4134 52.6049 81.7832 52.4243 81.9495 52.3124L85.0795 52.9187L85.7108 52.9491C88.1663 52.8148 90.9726 51.8952 93.3801 51.3291C94.9776 50.9535 96.9107 50.7079 98.3812 50.0159C98.9926 49.7281 99.5409 49.089 99.9817 48.5902Z"/>
	<path fill="#A4A3A9" d="M83.0566 90.1329L83.899 90.125C84.112 90.6968 84.0819 91.0711 83.812 91.6354C83.4276 92.4388 82.5763 92.9759 81.75 93.2382C81.1302 93.435 80.3378 93.5285 79.7164 93.3042C79.7389 92.7976 79.7864 92.2889 80.0557 91.8458C80.7004 90.7852 81.9332 90.4239 83.0566 90.1329Z"/>
	<path fill="#524D56" d="M82.0844 71.6556C82.6798 72.1795 83.4378 72.8192 83.8096 73.5233C84.2467 74.3511 84.3645 75.3427 84.8388 76.1347L84.9856 76.375L84.875 77.0553C83.2315 77.6089 81.9066 78.0698 80.1611 78.1029L80.1524 77.719C81.48 76.8009 82.27 76.2183 82.8936 74.6783C82.8403 73.8761 82.603 73.4185 82.1623 72.7571C82.1015 72.3982 82.1022 72.0196 82.0844 71.6556Z"/>
	<path fill="#9877A1" d="M77.8856 82.7679L78.2283 83.9211C77.7886 84.6743 77.8027 85.5267 77.3968 86.2151C76.9399 86.4173 76.258 86.663 75.9291 87.0435C74.9684 88.1549 74.6991 89.6371 73.2201 90.3413L73.2605 89.9816C73.5644 87.5996 73.6824 85.6363 75.704 84.0737C76.2388 84.0221 77.3872 83.0861 77.8856 82.7679Z"/>
	<path fill="#46536A" d="M84.76 56.0018C85.0071 56.8648 84.9101 57.2349 84.4786 58.0177C83.0211 60.6617 80.9724 62.799 79.6275 65.5C79.627 65.1954 79.5185 64.2274 79.625 64C79.6813 63.8798 79.8685 63.8377 79.86 63.6878C79.7879 62.4094 80.8314 61.3272 80.625 60.1225C81.0392 59.5189 81.0203 59.1336 81.0941 58.4186L80.9939 57.75L81.4506 57.1784C82.6122 57.1389 83.725 56.4871 84.76 56.0018Z"/>
	<path fill="#39383A" d="M79.6463 59.6778L79.7506 58.9891L80.9387 54.1718C81.0124 53.8805 81.153 52.9358 81.2992 52.75C81.4134 52.6049 81.7832 52.4243 81.9495 52.3124L85.0795 52.9187C85.1694 53.2443 85.2436 53.8124 85.4034 54.091C85.553 54.352 85.9789 54.3766 86.125 54.75L85.6497 54.9433C85.6252 55.5741 85.7334 56.291 85.366 56.8089L85.3365 55.8907L84.76 56.0018C83.725 56.4871 82.6122 57.1389 81.4506 57.1784L80.9939 57.75L81.0941 58.4186C80.7458 58.7403 80.0607 59.5288 79.6463 59.6778Z"/>
	<path fill="#524D56" d="M88.9367 78.625L89.5901 78.5868C89.6321 78.7151 89.6697 78.853 89.6779 78.9884C89.7166 79.6283 88.924 80.9453 88.7157 81.6048L87.1979 87.1489C86.9921 87.8938 86.887 88.8106 86.375 89.4133L86.0267 89.2375C84.4135 87.1832 85.8506 81.846 85.9647 79.3721L88.9367 78.625Z"/>
	<path fill="#664D6E" d="M77.5335 73.0566C77.7297 72.2574 77.7049 71.1245 78.0678 70.4049C78.2724 69.9993 78.4719 69.99 78.875 69.8462C79.945 70.4665 81.1251 70.8708 82.0844 71.6556C82.1022 72.0196 82.1015 72.3982 82.1623 72.7571C82.603 73.4185 82.8403 73.8761 82.8936 74.6783C82.27 76.2183 81.48 76.8009 80.1524 77.719L80.1611 78.1029L79.5972 78.3179L78.7395 78.7618L77.5836 78.0597L76.625 77.388C76.3664 76.465 76.5538 76.1363 76.8176 75.2317L77.5335 73.0566Z"/>
	<path fill="#7C494F" d="M77.7947 72.8999C78.4273 72.5662 78.4943 72.527 79.1975 72.625C79.6246 73.473 79.1656 74.5784 79.2365 75.5C79.3171 76.5475 79.7463 77.1453 79.5972 78.3179L78.7395 78.7618L77.5836 78.0597L78.2994 76.7073C78.8749 75.7486 79.1449 74.2235 78.875 73.1275L77.7947 72.8999Z"/>
	<path fill="#944F61" d="M77.7947 72.8999L78.875 73.1275C79.1449 74.2235 78.8749 75.7486 78.2994 76.7073L77.5836 78.0597L76.625 77.388C76.3664 76.465 76.5538 76.1363 76.8176 75.2317L77.5335 73.0566L77.7947 72.8999Z"/>
	<path fill="#4A4054" d="M80.1524 77.719C79.9275 76.9097 80.162 76.1814 80.0649 75.375C79.99 74.7528 79.6541 74.1696 79.672 73.5341C79.6966 72.6649 79.7487 72.3433 80.375 71.7544C81.1281 71.9759 81.5879 72.2193 82.1623 72.7571C82.603 73.4185 82.8403 73.8761 82.8936 74.6783C82.27 76.2183 81.48 76.8009 80.1524 77.719Z"/>
	<path fill="#46536A" d="M81.4292 80.585C82.5663 80.2892 83.8054 80.2131 84.875 79.7394L85.3651 80.25L84.6205 83.0747C84.6509 85.5302 83.2912 86.7947 82.4599 88.8726C82.4369 88.9301 82.2081 89.48 82.2164 89.5C82.2491 89.579 82.427 89.7406 82.4928 89.8061C82.655 89.968 82.8474 90.0489 83.0566 90.1329C81.9332 90.4239 80.7004 90.7852 80.0557 91.8458C79.7864 92.2889 79.7389 92.7976 79.7164 93.3042C79.5278 93.2932 79.041 93.2104 78.875 93.2551C78.42 93.3776 77.8469 93.9661 77.4662 94.2677C75.5466 95.7885 73.968 96.2343 71.6638 96.9902L72.217 93.1175C72.3074 92.5638 72.5138 92.2567 72.8596 91.8218L73.2201 90.3413C74.6991 89.6371 74.9684 88.1549 75.9291 87.0435C76.258 86.663 76.9399 86.4173 77.3968 86.2151C77.8027 85.5267 77.7886 84.6743 78.2283 83.9211L77.8856 82.7679L78.6592 81.8299C79.5499 81.3225 80.4829 80.9714 81.4292 80.585Z"/>
	<path fill="#4A4054" d="M72.217 93.1175C72.3074 92.5638 72.5138 92.2567 72.8596 91.8218L74.255 92.5057C74.5844 93.1352 74.7217 93.2861 74.625 94.0149C74.1957 94.4177 73.9264 94.6008 73.3332 94.657C72.7894 94.1632 73.1658 93.2436 72.5843 93.0085L72.217 93.1175Z"/>
	<path fill="#3A7693" d="M77.3968 86.2151L77.0182 88.1159L77.2858 88.4145C77.2332 90.0485 76.9238 90.7655 75.6752 91.9118C75.2684 92.2852 74.7873 92.4169 74.255 92.5057L72.8596 91.8218L73.2201 90.3413C74.6991 89.6371 74.9684 88.1549 75.9291 87.0435C76.258 86.663 76.9399 86.4173 77.3968 86.2151Z"/>
	<path fill="#524D56" d="M81.4292 80.585C82.5663 80.2892 83.8054 80.2131 84.875 79.7394L85.3651 80.25L84.6205 83.0747C84.5726 82.8383 84.326 81.9991 84.4001 81.822L84.5388 81.4696C84.6723 81.1164 84.6249 80.7732 84.5922 80.4053C84.277 80.9939 84.2307 81.6643 83.9201 82.2308C83.7371 82.5645 83.088 83.1122 83.0045 83.4042C82.6771 84.5493 82.4182 86.9261 81.3125 87.6652C80.9686 87.1284 80.6012 87.4207 80.2053 87.0796C79.3796 87.1606 78.5646 87.2224 77.7675 87.4657C77.4707 87.8332 77.3431 87.9474 77.2858 88.4145L77.0182 88.1159L77.3968 86.2151C77.8027 85.5267 77.7886 84.6743 78.2283 83.9211L77.8856 82.7679L78.6592 81.8299C79.5499 81.3225 80.4829 80.9714 81.4292 80.585Z"/>
	<path fill="#5B5B5C" d="M81.4292 80.585C81.3857 81.5023 81.3907 83.8886 80.8975 84.6261L78.2283 83.9211L77.8856 82.7679L78.6592 81.8299C79.5499 81.3225 80.4829 80.9714 81.4292 80.585Z"/>
	<path fill="#4A6467" d="M78.2283 83.9211L80.8975 84.6261C80.7698 85.4599 80.7024 86.3728 80.2053 87.0796C79.3796 87.1606 78.5646 87.2224 77.7675 87.4657C77.4707 87.8332 77.3431 87.9474 77.2858 88.4145L77.0182 88.1159L77.3968 86.2151C77.8027 85.5267 77.7886 84.6743 78.2283 83.9211Z"/>
	<defs>
		<linearGradient id="gradient_3" gradientUnits="userSpaceOnUse" x1="58.109737" y1="14.300003" x2="26.664265" y2="19.309008">
			<stop offset="0" stop-color="#969696"/>
			<stop offset="1" stop-color="#BBB8BC"/>
		</linearGradient>
	</defs>
	<path fill="url(#gradient_3)" d="M23.4769 11.7309C25.9924 11.2243 28.4861 11.2111 31.018 10.8685L37.82 9.92648C39.7223 9.61013 41.3403 9.02644 43.3111 9.29209C46.0749 9.66461 49.0354 11.0653 51.7033 11.8907C53.4804 12.4405 55.957 12.874 57.5163 13.8742L57.55 13.9053L66.3461 16.8866C68.562 17.6103 70.9822 18.0739 73.0212 19.2365C73.8497 19.4794 74.3441 19.7172 74.7889 20.5222L75.471 21.9776L75.2114 22.5171C74.9879 22.5456 74.4648 22.5577 74.3028 22.6943C72.7054 23.1621 71.0349 23.1702 69.3964 23.4153L59.1619 25.0563L58.6361 25.0486C57.9012 25.1757 57.1642 25.3316 56.4158 25.3283C56.1668 25.3954 55.4954 25.49 55.3138 25.625C54.9197 25.9179 54.7921 26.6116 54.3103 26.9389C53.1309 27.6638 52.9624 28.2879 52.5592 29.5567L52.3561 30.5708C53.1299 30.6122 53.4508 31.1346 54.0682 31.4961C54.762 31.9024 55.4716 32.0488 56.2618 32.1263C55.6673 32.8099 55.1177 33.4551 54.2368 33.7605L53.875 34.4061C54.1993 34.7267 54.5062 35.0476 54.9036 35.279L54.6857 37.4296C54.3727 37.143 53.9145 37.1455 53.5112 37.1018C52.6034 37.829 52.6583 38.9532 52.5081 40C52.4119 40.6705 52.3207 41.329 51.75 41.7597C50.4392 40.8952 52.1177 37.9681 51.625 36.4215C50.8265 35.6955 50.451 35.8663 49.5 35.489C48.5388 35.1077 48.1681 34.7527 47.031 34.6212C47.0304 36.6632 47.4129 39.6182 46.8078 41.5355L45.9435 41.9845C45.3958 42.0482 44.8278 41.9734 44.2795 41.9333C43.7773 41.2999 43.3837 40.6969 43.035 39.9671C42.2904 40.0718 41.8522 39.8209 41.2154 39.4808L42.7789 36.1828L42.3478 35.9466L41.5178 36.2417L40.3752 38.934L34.153 35.6817C33.2662 35.3264 32.5591 34.7882 31.7157 34.375C30.0733 33.5703 28.398 32.9652 26.8495 31.9603C26.5679 31.451 24.4334 30.9445 23.8197 30.7591C23.4216 28.8901 23.7013 26.3673 23.6384 24.3866C23.6582 22.9973 23.4876 21.9565 24.1883 20.7354L23.9806 20.1552L24.0125 19.9535C24.1934 19.7861 24.3416 19.6187 24.41 19.3759C24.6888 18.3859 24.565 17.2318 24.0619 16.3399L24.0091 16.3188C22.7407 15.773 21.7973 14.6529 21.3193 13.4022C21.9329 12.6678 22.4675 11.8815 23.4769 11.7309ZM23.6384 24.3866C23.7013 26.3673 23.4216 28.8901 23.8197 30.7591C24.4334 30.9445 26.5679 31.451 26.8495 31.9603C28.398 32.9652 30.0733 33.5703 31.7157 34.375C32.5591 34.7882 33.2662 35.3264 34.153 35.6817L40.3752 38.934L41.5178 36.2417L42.3478 35.9466L42.7789 36.1828L41.2154 39.4808C41.8522 39.8209 42.2904 40.0718 43.035 39.9671C43.3837 40.6969 43.7773 41.2999 44.2795 41.9333C44.8278 41.9734 45.3958 42.0482 45.9435 41.9845L46.8078 41.5355C47.4129 39.6182 47.0304 36.6632 47.031 34.6212C48.1681 34.7527 48.5388 35.1077 49.5 35.489C50.451 35.8663 50.8265 35.6955 51.625 36.4215C52.1177 37.9681 50.4392 40.8952 51.75 41.7597C52.3207 41.329 52.4119 40.6705 52.5081 40C52.6583 38.9532 52.6034 37.829 53.5112 37.1018C53.9145 37.1455 54.3727 37.143 54.6857 37.4296L54.9036 35.279C54.5062 35.0476 54.1993 34.7267 53.875 34.4061L54.2368 33.7605C55.1177 33.4551 55.6673 32.8099 56.2618 32.1263C55.4716 32.0488 54.762 31.9024 54.0682 31.4961C53.4508 31.1346 53.1299 30.6122 52.3561 30.5708L52.1254 31.4145C52.0264 31.7497 51.883 31.8815 51.625 32.0936C49.2249 31.5331 46.7409 30.4438 44.5656 29.3129C42.359 28.1657 40.0197 27.266 37.7549 26.2411C37.2301 26.0036 36.0089 25.2787 35.5 25.2868C35.2759 25.2903 34.8542 25.491 34.625 25.5635C34.4384 25.2432 34.2171 24.8679 33.9344 24.625C33.4832 24.2374 28.7226 21.7898 28.2689 21.8086L27.75 22.5612L27 22.4859C26.6937 22.4768 25.8846 22.3967 25.625 22.498C25.1286 22.6916 24.0825 23.9645 23.6384 24.3866Z"/>
	<defs>
		<linearGradient id="gradient_4" gradientUnits="userSpaceOnUse" x1="72.483582" y1="23.984335" x2="57.394398" y2="17.857006">
			<stop offset="0" stop-color="#5B5A60"/>
			<stop offset="1" stop-color="#868587"/>
		</linearGradient>
	</defs>
	<path fill="url(#gradient_4)" d="M57.55 13.9053L66.3461 16.8866C68.562 17.6103 70.9822 18.0739 73.0212 19.2365C73.8497 19.4794 74.3441 19.7172 74.7889 20.5222L75.471 21.9776L75.2114 22.5171C74.9879 22.5456 74.4648 22.5577 74.3028 22.6943C72.7054 23.1621 71.0349 23.1702 69.3964 23.4153L59.1619 25.0563L58.6361 25.0486C57.9012 25.1757 57.1642 25.3316 56.4158 25.3283C55.2053 25.3022 54.3913 25.1355 53.3092 25.718L51.5485 23.1025C52.5564 23.0989 55.1678 23.4153 55.9894 23.0868C56.1469 23.0238 56.4406 22.6781 56.5812 22.5507L53.4433 21.4017C52.7975 21.1994 52.3808 21.31 51.8546 20.8125C52.5564 20.7148 52.9045 21.1771 53.5605 21.1335C53.7234 21.1227 55.3201 21.8727 55.625 22C56.7259 20.8653 58.0659 19.1992 58.552 17.6704C58.809 16.862 58.2499 16.2454 57.8762 15.5625L56.5017 15.1635L57.2521 14.9971C57.4713 14.8086 57.8495 14.7609 58.1262 14.6875L57.5394 14.3288L57.55 13.9053Z"/>
	<path fill="#A4A3A9" d="M57.55 13.9053L66.3461 16.8866C68.562 17.6103 70.9822 18.0739 73.0212 19.2365C70.232 20.4904 60.3568 16.0072 57.2521 14.9971C57.4713 14.8086 57.8495 14.7609 58.1262 14.6875L57.5394 14.3288L57.55 13.9053Z"/>
	<defs>
		<linearGradient id="gradient_5" gradientUnits="userSpaceOnUse" x1="73.14946" y1="20.99811" x2="57.264854" y2="25.44589">
			<stop offset="0" stop-color="#99999C"/>
			<stop offset="1" stop-color="#C6C5C5"/>
		</linearGradient>
	</defs>
	<path fill="url(#gradient_5)" d="M59.3099 23.278L72.625 21.1592C73.6561 21.594 73.7317 21.7264 74.3028 22.6943C72.7054 23.1621 71.0349 23.1702 69.3964 23.4153L59.1619 25.0563L58.6361 25.0486C57.9012 25.1757 57.1642 25.3316 56.4158 25.3283C55.2053 25.3022 54.3913 25.1355 53.3092 25.718L51.5485 23.1025C52.5564 23.0989 55.1678 23.4153 55.9894 23.0868C56.1469 23.0238 56.4406 22.6781 56.5812 22.5507C57.074 22.6657 57.3678 22.7937 57.75 23.1275L59.3099 23.278Z"/>
	<path fill="#8C8B8E" d="M56.5812 22.5507C57.074 22.6657 57.3678 22.7937 57.75 23.1275L59.3099 23.278C57.5165 23.8315 56.038 24.2494 54.165 24.375L54.2333 24.875L58.6361 25.0486C57.9012 25.1757 57.1642 25.3316 56.4158 25.3283C55.2053 25.3022 54.3913 25.1355 53.3092 25.718L51.5485 23.1025C52.5564 23.0989 55.1678 23.4153 55.9894 23.0868C56.1469 23.0238 56.4406 22.6781 56.5812 22.5507Z"/>
	<defs>
		<linearGradient id="gradient_6" gradientUnits="userSpaceOnUse" x1="24.312513" y1="25.538767" x2="52.876976" y2="22.824448">
			<stop offset="0" stop-color="#2D2D31"/>
			<stop offset="1" stop-color="#656366"/>
		</linearGradient>
	</defs>
	<path fill="url(#gradient_6)" d="M21.3193 13.4022C21.9329 12.6678 22.4675 11.8815 23.4769 11.7309L28.6211 13.8202L31.592 15.0426L32.309 15.3443L39.0841 18.0896C39.5369 18.2467 40.6777 18.4934 40.999 18.7816L48.2835 21.6634L50.5959 22.5966L51.5485 23.1025L53.3092 25.718C54.3913 25.1355 55.2053 25.3022 56.4158 25.3283C56.1668 25.3954 55.4954 25.49 55.3138 25.625C54.9197 25.9179 54.7921 26.6116 54.3103 26.9389C53.1309 27.6638 52.9624 28.2879 52.5592 29.5567L52.3561 30.5708L52.1254 31.4145C52.0264 31.7497 51.883 31.8815 51.625 32.0936C49.2249 31.5331 46.7409 30.4438 44.5656 29.3129C42.359 28.1657 40.0197 27.266 37.7549 26.2411C37.2301 26.0036 36.0089 25.2787 35.5 25.2868C35.2759 25.2903 34.8542 25.491 34.625 25.5635C34.4384 25.2432 34.2171 24.8679 33.9344 24.625C33.4832 24.2374 28.7226 21.7898 28.2689 21.8086L27.75 22.5612L27 22.4859C26.6937 22.4768 25.8846 22.3967 25.625 22.498C25.1286 22.6916 24.0825 23.9645 23.6384 24.3866C23.6582 22.9973 23.4876 21.9565 24.1883 20.7354L23.9806 20.1552L24.0125 19.9535C24.1934 19.7861 24.3416 19.6187 24.41 19.3759C24.6888 18.3859 24.565 17.2318 24.0619 16.3399L24.0091 16.3188C22.7407 15.773 21.7973 14.6529 21.3193 13.4022Z"/>
	<path fill="#39383A" d="M30.5331 17.6868L31.6697 18.0277C32.4931 18.2483 32.8466 19.1489 33.7264 19.4143L33.6402 19.8926C33.1405 19.5761 32.9141 19.7771 32.5602 19.6167C32.3292 19.512 32.1466 19.1386 31.8731 19.0153C31.1887 18.7067 30.4776 18.6807 29.7652 18.2925L30.5331 17.6868Z"/>
	<path fill="#39383A" d="M50.5959 22.5966L51.5485 23.1025L53.3092 25.718L53.0429 26.3717C52.2109 26.565 51.4156 26.1826 50.6134 25.9079C49.8008 25.6295 47.847 24.8371 47.4982 24.125C48.1813 23.1125 49.4873 22.9062 50.5959 22.5966Z"/>
	<path fill="#2E2F32" d="M28.6211 13.8202L31.592 15.0426L32.309 15.3443C31.8455 16.3443 31.3632 16.9629 30.5331 17.6868L29.7652 18.2925L28.8978 17.9031L28.7408 17.2755L27.9988 17.0012L27.6256 16.1881L27.5636 15.3773C27.775 14.7491 28.1945 14.3112 28.6211 13.8202Z"/>
	<path fill="#5B5B5C" d="M31.592 15.0426L32.309 15.3443C31.8455 16.3443 31.3632 16.9629 30.5331 17.6868L29.7652 18.2925L28.8978 17.9031L28.7408 17.2755C29.5338 17.0821 30.9203 15.649 31.592 15.0426Z"/>
	<path fill="#39383A" d="M48.2835 21.6634L48.2733 21.7112C48.1057 22.4316 47.2852 23.2438 46.6619 23.61C45.8135 24.1083 45.1907 23.9883 44.2964 23.7429C44.0458 23.6742 43.9957 23.4673 43.8723 23.25C43.9781 22.8485 44.0855 22.4296 44.0355 22.0125C43.9414 21.2273 43.8749 21.1269 43.25 20.6275C42.6864 21.093 42.7431 21.3215 42.625 22.0179L42.1894 22.0407C41.385 22.0615 39.9465 21.9076 39.3775 21.375L39.4822 20.5C40.0629 19.8375 40.2187 19.2093 40.999 18.7816L48.2835 21.6634Z"/>
	<path fill="#2E2F32" d="M32.309 15.3443L39.0841 18.0896C38.6583 18.8286 38.2525 19.7859 37.375 20.0384C36.7192 19.9796 35.8051 19.9977 35.2072 19.7429C34.5247 20.0199 34.3392 20.0043 33.6402 19.8926L33.7264 19.4143C32.8466 19.1489 32.4931 18.2483 31.6697 18.0277L30.5331 17.6868C31.3632 16.9629 31.8455 16.3443 32.309 15.3443Z"/>
	<path fill="#707073" d="M33.7264 19.4143L34.375 17.1946L35 17.2448C35.441 18.1042 35.2657 18.8019 35.2072 19.7429C34.5247 20.0199 34.3392 20.0043 33.6402 19.8926L33.7264 19.4143Z"/>
	<path fill="#39383A" d="M21.3193 13.4022C21.9329 12.6678 22.4675 11.8815 23.4769 11.7309L28.6211 13.8202C28.1945 14.3112 27.775 14.7491 27.5636 15.3773L27.6256 16.1881L27.25 17.0255C26.7912 17.1237 26.4728 17.0434 26.0285 16.9118L24.0619 16.3399L24.0091 16.3188C22.7407 15.773 21.7973 14.6529 21.3193 13.4022Z"/>
	<path fill="#5B5B5C" d="M26.0285 16.9118C26.0163 16.1103 25.8633 14.988 26.2557 14.2778L27 14.1983C27.4663 14.568 27.4442 14.8193 27.5636 15.3773L27.6256 16.1881L27.25 17.0255C26.7912 17.1237 26.4728 17.0434 26.0285 16.9118Z"/>
	<path fill="#1D1D1F" d="M23.6384 24.3866C24.0825 23.9645 25.1286 22.6916 25.625 22.498C25.8846 22.3967 26.6937 22.4768 27 22.4859L27.75 22.5612L28.2689 21.8086C28.7226 21.7898 33.4832 24.2374 33.9344 24.625C34.2171 24.8679 34.4384 25.2432 34.625 25.5635C34.8542 25.491 35.2759 25.2903 35.5 25.2868C36.0089 25.2787 37.2301 26.0036 37.7549 26.2411C40.0197 27.266 42.359 28.1657 44.5656 29.3129C46.7409 30.4438 49.2249 31.5331 51.625 32.0936C51.883 31.8815 52.0264 31.7497 52.1254 31.4145L52.3561 30.5708C53.1299 30.6122 53.4508 31.1346 54.0682 31.4961C54.762 31.9024 55.4716 32.0488 56.2618 32.1263C55.6673 32.8099 55.1177 33.4551 54.2368 33.7605L53.875 34.4061C54.1993 34.7267 54.5062 35.0476 54.9036 35.279L54.6857 37.4296C54.3727 37.143 53.9145 37.1455 53.5112 37.1018C52.6034 37.829 52.6583 38.9532 52.5081 40C52.4119 40.6705 52.3207 41.329 51.75 41.7597C50.4392 40.8952 52.1177 37.9681 51.625 36.4215C50.8265 35.6955 50.451 35.8663 49.5 35.489C48.5388 35.1077 48.1681 34.7527 47.031 34.6212C47.0304 36.6632 47.4129 39.6182 46.8078 41.5355L45.9435 41.9845C45.3958 42.0482 44.8278 41.9734 44.2795 41.9333C43.7773 41.2999 43.3837 40.6969 43.035 39.9671C42.2904 40.0718 41.8522 39.8209 41.2154 39.4808L42.7789 36.1828L42.3478 35.9466L41.5178 36.2417L40.3752 38.934L34.153 35.6817C33.2662 35.3264 32.5591 34.7882 31.7157 34.375C30.0733 33.5703 28.398 32.9652 26.8495 31.9603C26.5679 31.451 24.4334 30.9445 23.8197 30.7591C23.4216 28.8901 23.7013 26.3673 23.6384 24.3866ZM26.8495 31.9603C28.398 32.9652 30.0733 33.5703 31.7157 34.375C32.5591 34.7882 33.2662 35.3264 34.153 35.6817L40.3752 38.934L41.5178 36.2417C41.2434 34.4358 41.0147 33.1507 41.0631 31.2815C39.7613 30.892 38.6238 30.3926 37.25 30.3775C37.2073 30.2286 37.162 30.0583 37.0747 29.9287C36.3604 28.8681 34.5844 29.164 33.625 28.8775C33.3512 28.7957 32.5183 27.7013 32.1775 27.4744C31.6682 27.1354 30.843 26.9966 30.2512 26.8449C30.0612 27.2961 29.5901 27.7095 29.4623 28.1172C29.31 28.6027 28.8431 28.8066 28.5642 29.2185C27.951 30.1241 27.5297 31.07 26.8495 31.9603ZM43.0063 36.1969L43.035 39.9671C43.3837 40.6969 43.7773 41.2999 44.2795 41.9333C44.8278 41.9734 45.3958 42.0482 45.9435 41.9845L46.8078 41.5355C47.4129 39.6182 47.0304 36.6632 47.031 34.6212C46.0827 33.5076 44.3053 33.082 43.0724 32.2856L43.0063 36.1969Z"/>
	<path fill="#010101" d="M26.8495 31.9603C27.5297 31.07 27.951 30.1241 28.5642 29.2185C28.8431 28.8066 29.31 28.6027 29.4623 28.1172C29.5901 27.7095 30.0612 27.2961 30.2512 26.8449C30.843 26.9966 31.6682 27.1354 32.1775 27.4744C32.5183 27.7013 33.3512 28.7957 33.625 28.8775C34.5844 29.164 36.3604 28.8681 37.0747 29.9287C37.162 30.0583 37.2073 30.2286 37.25 30.3775C38.6238 30.3926 39.7613 30.892 41.0631 31.2815C41.0147 33.1507 41.2434 34.4358 41.5178 36.2417L40.3752 38.934L34.153 35.6817C33.2662 35.3264 32.5591 34.7882 31.7157 34.375C30.0733 33.5703 28.398 32.9652 26.8495 31.9603ZM39.2921 33.125L37.0565 34.375L37.073 34.9344C37.4099 35.09 37.7655 35.2872 38.125 35.3775C38.9954 35.4293 39.2135 35.4672 39.9681 34.9984C40.2197 34.3191 40.2492 33.8419 40.174 33.125C39.8016 33.0142 39.6695 33.0316 39.2921 33.125Z"/>
	<defs>
		<linearGradient id="gradient_7" gradientUnits="userSpaceOnUse" x1="16.958595" y1="59.908669" x2="39.289959" y2="51.150448">
			<stop offset="0" stop-color="#3D3D3E"/>
			<stop offset="1" stop-color="#585857"/>
		</linearGradient>
	</defs>
	<path fill="url(#gradient_7)" d="M37.7193 89.4399C35.6909 88.1177 33.4426 87.4519 31.4097 86.2219C29.5433 85.0926 27.7274 83.5349 26.0758 82.1044C25.6446 81.731 24.7754 81.1362 24.4773 80.6707C24.0026 79.9296 23.7676 78.0137 23.5518 77.112L20.9648 66.1262L10.6607 24.4521L23.8197 30.7591C24.4334 30.9445 26.5679 31.451 26.8495 31.9603C28.398 32.9652 30.0733 33.5703 31.7157 34.375C32.5591 34.7882 33.2662 35.3264 34.153 35.6817C33.4239 36.0772 33.2842 36.529 32.7158 37.0356C34.4861 37.6861 37.456 38.8745 38.8818 40.0984L39.2366 40.0258C39.8451 40.4236 40.522 40.7782 40.8701 41.4417L39.7348 58.0332L38.0444 87.8541L37.7193 89.4399Z"/>
	<path fill="#5B5B5C" d="M27.0832 49.125L27.5287 48.9703L28.1013 49.375C27.9019 52.8592 28.2651 56.4133 27.834 59.875L27.375 60.0575C26.9644 58.6709 27.0807 57.1314 27.0406 55.6957C26.9797 53.5123 26.7115 51.2916 27.0832 49.125Z"/>
	<path fill="#5B5B5C" d="M20.75 32.625C21.5498 32.6754 22.7198 33.3049 23.489 33.6092L23.7572 51.4313L23.8927 62.316C23.8919 63.8292 24.0801 65.6535 23.75 67.125L23.7581 60.6286C23.7574 60.0293 23.8996 58.8288 23.6953 58.3083C23.4075 57.575 23.4605 56.6525 23.4375 55.8738C21.7415 53.5404 21.6751 50.5344 21.371 47.8057L20.4338 39.2485C20.3655 38.4602 20.5511 37.4441 20.3068 36.7033C20.265 36.5767 20.2168 36.4514 20.1942 36.3194C19.9809 35.0688 19.9942 33.6814 20.75 32.625Z"/>
	<defs>
		<linearGradient id="gradient_8" gradientUnits="userSpaceOnUse" x1="29.613485" y1="61.305843" x2="43.667187" y2="58.477081">
			<stop offset="0" stop-color="#504F50"/>
			<stop offset="1" stop-color="#9F9E9E"/>
		</linearGradient>
	</defs>
	<path fill="url(#gradient_8)" d="M27.2414 35.4728L27.4224 34.6256C29.1124 34.9869 31.3232 36.0396 32.7158 37.0356C34.4861 37.6861 37.456 38.8745 38.8818 40.0984L39.2366 40.0258C39.8451 40.4236 40.522 40.7782 40.8701 41.4417L39.7348 58.0332L38.0444 87.8541C35.5635 85.8245 35.5334 82.3151 34.6658 79.4102C34.4789 78.7843 34.4191 78.0485 34.0001 77.5259C33.624 77.0567 33.3082 77.1292 32.7515 77.0662C32.1117 76.5473 32.081 76.2381 31.8331 75.4754C31.5533 74.7248 31.5099 74.1705 31.5732 73.375L32.3802 72.694L32.5654 72.6032C32.707 69.6435 32.092 66.6663 31.6838 63.7485C31.4626 62.1669 31.5769 60.7315 30.9688 59.2029C30.4579 59.2797 30.4142 59.4473 30.0844 59.829L30.1655 60.2303L29.6296 60.5203L28.9897 60C28.6476 56.3393 28.6674 52.6974 28.6275 49L28.875 48.75C28.9062 48.3104 28.8925 48.0552 28.6694 47.67C28.1209 47.6728 27.5753 47.7612 27.0323 47.8323L26.7663 47.2437L26.9784 46.4137C27.2571 46.0632 27.7149 45.8008 27.8775 45.3753C27.5278 43.9206 28.0974 41.2111 27.1695 40.1701L26.1262 40.1238C25.6865 39.2752 25.2276 38.3265 25.0765 37.375C24.9315 36.462 25.1214 36.1692 25.641 35.471C25.6175 35.2666 25.7292 35.0657 25.8011 34.875C26.5585 34.8423 26.6614 35.0275 27.2414 35.4728Z"/>
	<path fill="#39383A" d="M25.641 35.471C25.6175 35.2666 25.7292 35.0657 25.8011 34.875C26.5585 34.8423 26.6614 35.0275 27.2414 35.4728C27.1775 36.1411 27.2717 36.5606 26.75 37.0194C26.1344 36.633 25.9751 36.1053 25.641 35.471Z"/>
	<path fill="#5B5B5C" d="M31.8331 75.4754C31.5533 74.7248 31.5099 74.1705 31.5732 73.375L32.3802 72.694C33.4573 74.0987 33.8692 74.5732 33.741 76.3407L33.25 76.7514C32.6248 76.4539 32.265 75.9953 31.8331 75.4754Z"/>
	<path fill="#707073" d="M26.9784 46.4137C28.3704 46.0854 30.2838 45.0337 31.637 45.625L31.8768 46.3194L31.4917 46.875L27.1624 47.4123L26.7663 47.2437L26.9784 46.4137Z"/>
	<path fill="#8C8B8E" d="M39.2366 40.0258C39.8451 40.4236 40.522 40.7782 40.8701 41.4417L39.7348 58.0332C39.5119 57.5889 39.4944 57.2423 39.5 56.75C39.0602 56.3172 39.0363 55.4536 38.9027 54.8712L37.98 50.8702C37.6849 49.2377 37.9934 47.1748 37.2061 45.7031L37.165 45.6271L37.2144 45.5006C37.5644 44.6034 38.5812 45.0612 38.9038 44.4882C38.9659 44.3779 38.9342 43.7176 38.9466 43.5274C38.9985 42.7268 39.1918 42.2205 39.6884 41.5804L40.375 41.75C40.1003 41.0671 39.4064 40.6091 38.8818 40.0984L39.2366 40.0258Z"/>
	<path fill="#010101" d="M59.9336 30.4448C61.3665 31.5364 64.1598 34.0674 64.6557 35.8017C64.9606 36.3544 65.3273 36.4891 65.7897 36.8664L65.8386 37.114C65.0984 37.7504 64.2552 38.3756 63.629 39.1243L62.9381 39.9802L63.0209 40.1652C63.6257 40.0048 63.9879 40.0428 64.5839 40.1923C65.5031 40.5458 66.28 40.7349 67.25 40.875L67.0625 41.3125L66.9772 41.3406C66.5839 41.473 66.2367 41.6703 65.8775 41.875L65.7821 43.2679C66.0267 42.7745 66.2708 42.3564 66.625 41.9286C67.5837 41.8931 67.8572 42.0144 68.7092 42.465L72.9316 40.0868C73.0507 40.9624 73.4998 41.263 73.9031 41.9844C75.6596 45.126 78.7011 48.2249 79.8505 51.6116L80.375 52.2553C80.898 52.2853 81.3891 52.269 81.9099 52.2135L81.9495 52.3124C81.7832 52.4243 81.4134 52.6049 81.2992 52.75C81.153 52.9358 81.0124 53.8805 80.9387 54.1718L79.7506 58.9891L79.6463 59.6778L78.3373 64.7003C77.9653 67.0731 77.2792 69.3183 76.7629 71.6562C76.6083 72.3558 76.2513 73.3963 76.313 74.1L76.6275 74.25L76.8176 75.2317C76.5538 76.1363 76.3664 76.465 76.625 77.388L77.5836 78.0597L78.7395 78.7618C78.9876 79.8744 78.4351 80.6197 78.6592 81.8299L77.8856 82.7679C77.3872 83.0861 76.2388 84.0221 75.704 84.0737C74.8971 84.0687 74.2963 84.0381 73.614 84.5237L68.4015 106.665C69.6855 106.641 71.022 106.673 72.2978 106.531C73.1594 106.435 74.4545 105.85 75.2627 106.089C72.9132 106.889 70.9558 107.207 68.5493 107.602C66.5363 107.933 65.8523 108.408 63.7119 107.889C61.5298 107.452 59.3107 106.998 57.2658 106.099C52.4622 103.783 48.4517 100.105 45.3209 95.8185C43.3147 93.3768 40.1991 91.4145 37.7193 89.4399L38.0444 87.8541L39.7348 58.0332L40.8701 41.4417C40.522 40.7782 39.8451 40.4236 39.2366 40.0258L38.8818 40.0984C37.456 38.8745 34.4861 37.6861 32.7158 37.0356C33.2842 36.529 33.4239 36.0772 34.153 35.6817L40.3752 38.934L41.5178 36.2417L42.3478 35.9466L42.7789 36.1828L41.2154 39.4808C41.8522 39.8209 42.2904 40.0718 43.035 39.9671C43.3837 40.6969 43.7773 41.2999 44.2795 41.9333C44.8278 41.9734 45.3958 42.0482 45.9435 41.9845L46.8078 41.5355C47.4129 39.6182 47.0304 36.6632 47.031 34.6212C48.1681 34.7527 48.5388 35.1077 49.5 35.489C50.451 35.8663 50.8265 35.6955 51.625 36.4215C52.1177 37.9681 50.4392 40.8952 51.75 41.7597C52.3207 41.329 52.4119 40.6705 52.5081 40C52.6583 38.9532 52.6034 37.829 53.5112 37.1018C53.9145 37.1455 54.3727 37.143 54.6857 37.4296L54.9036 35.279C54.5062 35.0476 54.1993 34.7267 53.875 34.4061L54.2368 33.7605C55.1177 33.4551 55.6673 32.8099 56.2618 32.1263C56.4606 31.7593 56.9656 31.387 57.2722 31.0931L57.4918 30.7666L58.0091 30.8843C58.7403 30.8626 59.2634 30.7365 59.9336 30.4448ZM68.7092 42.465L68.0841 43.4289C66.9525 44.6943 65.8362 45.7577 64.9581 47.233L63.5121 50.4118C61.9836 54.3475 61.6879 58.682 63.4079 62.6255C63.9646 63.9021 64.9676 65.168 65.9867 66.1207L65.9089 67.8136C66.2052 67.815 66.6127 67.7652 66.8838 67.8861C66.6671 69.2785 65.7216 72.0949 66.2474 73.2858L65.7626 74.6779C64.8567 75.8713 65.3244 77.664 64.6716 78.875C64.7756 79.1368 64.905 79.6041 65.1064 79.7943L64.9808 80.718C65.0693 82.2032 64.773 82.7944 64.3311 84.1687L64.2596 84.3899C64.1972 85.9918 64.4456 88.2729 63.2116 89.4354C64.2441 89.644 65.2753 89.8905 66.3347 89.8661C66.7708 90.0058 66.7869 90.2721 67.0795 90.4103L66.2122 94.1775L65.3737 94.0832L64.9885 95.1817L64.0857 99.448C64.3653 99.4385 64.6765 99.3962 64.9468 99.4752L64.3826 102.015C64.2041 103.981 63.5662 105.915 63.7119 107.889C65.8523 108.408 66.5363 107.933 68.5493 107.602C70.9558 107.207 72.9132 106.889 75.2627 106.089C74.4545 105.85 73.1594 106.435 72.2978 106.531C71.022 106.673 69.6855 106.641 68.4015 106.665L73.614 84.5237C74.2963 84.0381 74.8971 84.0687 75.704 84.0737C76.2388 84.0221 77.3872 83.0861 77.8856 82.7679L78.6592 81.8299C78.4351 80.6197 78.9876 79.8744 78.7395 78.7618L77.5836 78.0597L76.625 77.388C76.3664 76.465 76.5538 76.1363 76.8176 75.2317L76.6275 74.25L76.313 74.1C76.2513 73.3963 76.6083 72.3558 76.7629 71.6562C77.2792 69.3183 77.9653 67.0731 78.3373 64.7003L79.6463 59.6778L79.7506 58.9891L80.9387 54.1718C81.0124 53.8805 81.153 52.9358 81.2992 52.75C81.4134 52.6049 81.7832 52.4243 81.9495 52.3124L81.9099 52.2135C81.3891 52.269 80.898 52.2853 80.375 52.2553L79.8505 51.6116C78.7011 48.2249 75.6596 45.126 73.9031 41.9844C73.4998 41.263 73.0507 40.9624 72.9316 40.0868L68.7092 42.465Z"/>
	<path fill="#1D1D1F" d="M53.6948 53.125L54.5011 52.967L54.9778 53.375C54.6182 53.8263 54.3387 54.1453 54.3122 54.75L55.125 55.5038L55.1275 56.375L54.375 56.5416C53.7974 55.9674 53.1124 55.5002 53.0513 54.625C53.0043 53.9519 53.291 53.6094 53.6948 53.125Z"/>
	<path fill="#524D56" d="M65.7821 43.2679C66.0267 42.7745 66.2708 42.3564 66.625 41.9286C67.5837 41.8931 67.8572 42.0144 68.7092 42.465L68.0841 43.4289C66.9525 44.6943 65.8362 45.7577 64.9581 47.233C64.4114 46.888 63.2454 47.0539 62.5625 46.9655L63.279 45.5506C63.8242 44.6209 64.477 43.9615 65.5384 43.6986L65.625 43.6777L65.7821 43.2679Z"/>
	<path fill="#2E2F32" d="M61.3224 78.6506L61.8725 79.5C61.0762 80.7601 61.0936 81.5638 61.1039 82.9988L61.4375 82.3738L61.5019 82.4631C61.7058 82.7421 61.8403 82.8809 62.1694 83.0099L61.9817 84.9832L60.9252 89.962C60.6011 89.7195 60.2098 89.4184 60.0378 89.0434C59.727 88.3658 59.8316 87.3248 59.8347 86.5909C59.8416 84.9486 59.7976 83.0428 60.212 81.4448C60.4495 80.5287 60.9734 79.5468 61.3224 78.6506Z"/>
	<path fill="#1D1D1F" d="M45.467 49.1984C46.7916 52.6814 46.9244 56.732 47.7691 60.3653C48.0892 61.742 48.6439 63.0293 49.0133 64.375C49.2115 65.0971 49.2402 65.8746 49.4246 66.6081C49.6016 67.3119 49.9508 67.8748 50.0424 68.625L50.0147 68.6704C49.7296 69.1458 49.6816 69.4835 49.6898 70.0323L49.132 70.1833L45.9447 54.7121C45.7584 53.5815 45.3702 52.6468 45.3775 51.5C44.9653 51.0703 45.0385 50.0866 45.0022 49.5111L45.467 49.1984Z"/>
	<path fill="#28282B" d="M49.6898 70.0323C50.2975 71.2333 50.7643 72.549 51.0499 73.8644L52.0215 78.9672C52.1065 79.3605 52.2738 80.2687 52.5291 80.5759C52.6764 80.7533 53.3106 81.0108 53.5539 81.1498C53.8581 81.3237 55.6003 82.2873 55.6933 82.51C55.9923 83.2257 55.7441 85.626 55.625 86.4512C54.8043 86.4193 54.5612 85.7693 53.7977 85.875C53.4846 89.5939 55.552 93.5697 55.7782 97.3243L55.1479 97.2683L55.117 97.2559C54.3721 95.8055 54.2078 93.7663 53.8392 92.1652C52.1638 84.8885 51.1116 77.3759 49.132 70.1833L49.6898 70.0323Z"/>
	<path fill="#8C8B8E" d="M65.3989 69.9661C65.5235 69.2369 65.616 68.498 65.9089 67.8136C66.2052 67.815 66.6127 67.7652 66.8838 67.8861C66.6671 69.2785 65.7216 72.0949 66.2474 73.2858L65.7626 74.6779C64.8567 75.8713 65.3244 77.664 64.6716 78.875C64.7756 79.1368 64.905 79.6041 65.1064 79.7943L64.9808 80.718C65.0693 82.2032 64.773 82.7944 64.3311 84.1687L64.2596 84.3899C64.1972 85.9918 64.4456 88.2729 63.2116 89.4354L62.5944 89.401C62.3101 88.4045 62.9128 86.4806 63.1194 85.4272C62.7687 85.1285 62.4212 85.0625 61.9817 84.9832L62.1694 83.0099C61.8403 82.8809 61.7058 82.7421 61.5019 82.4631L61.4375 82.3738L61.1039 82.9988C61.0936 81.5638 61.0762 80.7601 61.8725 79.5L61.3224 78.6506C61.649 78.2858 61.9003 77.469 62.1163 77.0076C62.5627 76.0541 63.1418 75.5767 64.0407 75.0613L65.3989 69.9661Z"/>
	<path fill="#28282B" d="M63.1194 85.4272C63.4646 84.0807 63.6219 82.1687 64.3095 80.9874C64.418 80.801 64.7726 80.7741 64.9808 80.718C65.0693 82.2032 64.773 82.7944 64.3311 84.1687L64.2596 84.3899C64.1972 85.9918 64.4456 88.2729 63.2116 89.4354L62.5944 89.401C62.3101 88.4045 62.9128 86.4806 63.1194 85.4272Z"/>
	<path fill="#28282B" d="M64.0407 75.0613C63.909 76.3512 63.7893 77.7507 63.4383 79C63.0549 80.3644 62.4473 81.6068 62.1694 83.0099C61.8403 82.8809 61.7058 82.7421 61.5019 82.4631L61.4375 82.3738L61.1039 82.9988C61.0936 81.5638 61.0762 80.7601 61.8725 79.5L61.3224 78.6506C61.649 78.2858 61.9003 77.469 62.1163 77.0076C62.5627 76.0541 63.1418 75.5767 64.0407 75.0613Z"/>
	<path fill="#28282B" d="M65.3989 69.9661L64.375 69.6558C63.7411 68.7689 62.1586 67.2527 61.8235 66.3344C61.6157 65.7653 62.0088 64.3995 61.8374 63.6455C61.489 62.1122 60.5163 60.6739 60.1987 59.0827C60.0175 58.1744 60.1795 57.1739 60.1576 56.25C60.1413 55.5602 59.8989 54.8741 59.9235 54.1849C60.0147 51.6293 61.144 49.0481 62.5625 46.9655C63.2454 47.0539 64.4114 46.888 64.9581 47.233L63.5121 50.4118C61.9836 54.3475 61.6879 58.682 63.4079 62.6255C63.9646 63.9021 64.9676 65.168 65.9867 66.1207L65.9089 67.8136C65.616 68.498 65.5235 69.2369 65.3989 69.9661Z"/>
	<path fill="#28282B" d="M54.9036 35.279C55.6603 35.3432 57.1819 35.8414 57.6884 36.4184C57.8054 36.5518 57.83 36.8288 57.8702 37.0061L57.754 37.6515C57.2799 39.4707 57.5705 41.1619 57.4936 43C58.0941 43.3151 58.2925 42.9051 58.75 43.0262C59.0409 43.1032 59.8198 44.1438 60.1634 44.3832C59.7667 44.8334 58.9943 45.5934 58.7849 46.125C58.3576 47.2097 59.2388 48.3588 59.2063 49.3945C59.1484 51.2436 58.4005 53.0322 58.2682 54.8793C58.1052 57.157 58.6144 59.422 58.6875 61.6888C58.7272 62.9202 58.4449 64.1934 58.4637 65.4474C58.4681 65.7432 58.5487 66.4638 58.7682 66.6757C59.5666 67.4463 60.5417 68.0429 61.6796 68.0128C61.837 68.0086 62.1347 68.2776 62.2749 68.375C62.582 69.5035 62.2631 71.3162 61.8127 72.375L61.125 72.6275L60.625 71.9719L59.6875 71.8738L59.4227 72.3245L58.974 70C58.4924 69.4392 58.3212 69.3736 57.627 69.1453C57.4085 67.1956 57.5342 65.2656 57.5037 63.3122L57.3229 52.4617C57.2913 49.9852 56.9168 47.5306 56.8104 45.0706C56.7599 43.9038 57.2789 42.6441 57.1644 41.5C57.1284 41.1407 56.6821 40.5658 56.5141 40.2212C56.2288 39.6358 56.077 39.0018 55.9108 38.375C55.4563 38.0996 55.0804 37.7813 54.6857 37.4296L54.9036 35.279Z"/>
	<path fill="#707073" d="M59.9336 30.4448C61.3665 31.5364 64.1598 34.0674 64.6557 35.8017C64.9606 36.3544 65.3273 36.4891 65.7897 36.8664L65.8386 37.114C65.0984 37.7504 64.2552 38.3756 63.629 39.1243L62.9381 39.9802L63.0209 40.1652C62.9168 40.9986 62.997 42.2128 62.3332 42.7441C61.6144 43.3194 60.8022 43.6975 60.1634 44.3832C59.8198 44.1438 59.0409 43.1032 58.75 43.0262C58.2925 42.9051 58.0941 43.3151 57.4936 43C57.5705 41.1619 57.2799 39.4707 57.754 37.6515L57.8702 37.0061C57.83 36.8288 57.8054 36.5518 57.6884 36.4184C57.1819 35.8414 55.6603 35.3432 54.9036 35.279C54.5062 35.0476 54.1993 34.7267 53.875 34.4061L54.2368 33.7605C55.1177 33.4551 55.6673 32.8099 56.2618 32.1263C56.4606 31.7593 56.9656 31.387 57.2722 31.0931L57.4918 30.7666L58.0091 30.8843C58.7403 30.8626 59.2634 30.7365 59.9336 30.4448Z"/>
	<path fill="#A4A3A9" d="M63.3426 36.7144L64.6557 35.8017C64.9606 36.3544 65.3273 36.4891 65.7897 36.8664L65.8386 37.114C65.0984 37.7504 64.2552 38.3756 63.629 39.1243L62.9381 39.9802L62.7386 39.9858L60.875 40.0402C59.9821 39.4977 60.6158 39.4008 60.1903 38.6451L60.149 38.5774L59.5444 37.625L59.6691 37.125L60.3661 36.9601L60.6794 37.2519C61.6429 37.3141 62.4467 37.0211 63.3426 36.7144Z"/>
	<path fill="#9B9B9E" d="M60.149 38.5774L59.5444 37.625L59.6691 37.125L60.3661 36.9601L60.6794 37.2519L60.1275 37.625L60.2512 37.9988L60.75 38.2414L60.805 38.2079C61.3895 37.8571 61.7143 37.8229 62.375 37.8882C62.7776 38.313 63.1698 38.7598 63.629 39.1243L62.9381 39.9802L62.7386 39.9858L60.875 40.0402C59.9821 39.4977 60.6158 39.4008 60.1903 38.6451L60.149 38.5774Z"/>
	<path fill="#9B9B9E" d="M59.9336 30.4448C61.3665 31.5364 64.1598 34.0674 64.6557 35.8017L63.3426 36.7144C63.239 36.596 63.1362 36.479 63.0028 36.3937C62.5928 36.1316 62.3673 35.9136 62.0995 35.5052C61.3256 34.325 60.4346 33.0233 59.25 32.2107C58.7849 31.8916 58.31 31.8267 57.8267 31.4309L58.0091 30.8843C58.7403 30.8626 59.2634 30.7365 59.9336 30.4448Z"/>
	<path fill="#8C8B8E" d="M57.8702 37.0061L58.1202 36.5L58.3125 37.1262L58.875 37.1275L59.1198 37.375L59.0746 37.4772C58.8571 37.9937 58.9562 38.45 59.0448 38.9807L59.5 39.353L59.9988 39.2488L60.149 38.5774L60.1903 38.6451C60.6158 39.4008 59.9821 39.4977 60.875 40.0402L62.7386 39.9858L62.9381 39.9802L63.0209 40.1652C62.9168 40.9986 62.997 42.2128 62.3332 42.7441C61.6144 43.3194 60.8022 43.6975 60.1634 44.3832C59.8198 44.1438 59.0409 43.1032 58.75 43.0262C58.2925 42.9051 58.0941 43.3151 57.4936 43C57.5705 41.1619 57.2799 39.4707 57.754 37.6515L57.8702 37.0061Z"/>
	<path fill="#5B5B5C" d="M60.1634 44.3832C59.8198 44.1438 59.0409 43.1032 58.75 43.0262C58.2925 42.9051 58.0941 43.3151 57.4936 43C57.5705 41.1619 57.2799 39.4707 57.754 37.6515C57.6755 38.8869 57.3885 41.5838 58.2188 42.5801L58.2954 42.6668C60.02 42.3593 61.3152 40.873 62.7386 39.9858L62.9381 39.9802L63.0209 40.1652C62.9168 40.9986 62.997 42.2128 62.3332 42.7441C61.6144 43.3194 60.8022 43.6975 60.1634 44.3832Z"/>
	<path fill="#9B9B9E" d="M61.9817 84.9832C62.4212 85.0625 62.7687 85.1285 63.1194 85.4272C62.9128 86.4806 62.3101 88.4045 62.5944 89.401L63.2116 89.4354C64.2441 89.644 65.2753 89.8905 66.3347 89.8661C66.7708 90.0058 66.7869 90.2721 67.0795 90.4103L66.2122 94.1775L65.3737 94.0832L64.9885 95.1817L64.0857 99.448C64.3653 99.4385 64.6765 99.3962 64.9468 99.4752L64.3826 102.015C64.2041 103.981 63.5662 105.915 63.7119 107.889C61.5298 107.452 59.3107 106.998 57.2658 106.099L57.7605 104.532L58.34 101.912L60.9252 89.962L61.9817 84.9832Z"/>
	<path fill="#664D6E" d="M62.9778 91.0122C63.9153 91.0352 64.5377 91.2182 65.375 91.636C65.863 92.5191 65.6033 93.139 65.3737 94.0832L64.9885 95.1817C64.0536 94.336 63.4048 93.5105 63.0617 92.2848L62.9778 91.0122Z"/>
	<path fill="#28282B" d="M61.9619 96.064L61.1456 95.375C61.0437 95.038 60.9819 94.6877 61.0216 94.3355C61.1384 93.2993 61.4359 91.5578 62.2819 90.875L62.9778 91.0122L63.0617 92.2848C63.03 93.252 63.1714 94.9888 62.5941 95.7781L62.5554 95.8316L62.3302 96.0993L61.9619 96.064Z"/>
	<path fill="#4A4054" d="M63.0617 92.2848C63.4048 93.5105 64.0536 94.336 64.9885 95.1817L64.0857 99.448C62.9796 98.8272 62.4862 97.3471 61.8772 96.2246L61.9619 96.064L62.3302 96.0993L62.5554 95.8316L62.5941 95.7781C63.1714 94.9888 63.03 93.252 63.0617 92.2848Z"/>
	<defs>
		<linearGradient id="gradient_9" gradientUnits="userSpaceOnUse" x1="59.843285" y1="100.79481" x2="63.107204" y2="101.43836">
			<stop offset="0" stop-color="#2B2C2E"/>
			<stop offset="1" stop-color="#454248"/>
		</linearGradient>
	</defs>
	<path fill="url(#gradient_9)" d="M59.2263 102.685C59.5664 100.815 59.7427 98.5061 60.5872 96.7966L61.1266 96.6989C61.9616 98.2644 62.9435 99.8038 63.557 101.466C63.8704 101.803 63.9191 101.927 64.3826 102.015C64.2041 103.981 63.5662 105.915 63.7119 107.889C61.5298 107.452 59.3107 106.998 57.2658 106.099L57.7605 104.532L58.34 101.912L59.2263 102.685Z"/>
	<path fill="#8C8B8E" d="M63.557 101.466C63.8704 101.803 63.9191 101.927 64.3826 102.015C64.2041 103.981 63.5662 105.915 63.7119 107.889C61.5298 107.452 59.3107 106.998 57.2658 106.099L57.7605 104.532L58.34 101.912L59.2263 102.685C59.1165 103.495 58.9452 103.938 59.2897 104.69L62.863 105.37L63.557 101.466Z"/>
	<path fill="#010101" d="M34.153 35.6817L40.3752 38.934L41.5178 36.2417L42.3478 35.9466L42.7789 36.1828L41.2154 39.4808C41.8522 39.8209 42.2904 40.0718 43.035 39.9671C43.3837 40.6969 43.7773 41.2999 44.2795 41.9333C44.8278 41.9734 45.3958 42.0482 45.9435 41.9845C45.1048 42.2838 44.6627 42.0456 44.2611 42.875L45.467 49.1984L45.0022 49.5111C45.0385 50.0866 44.9653 51.0703 45.3775 51.5C45.3702 52.6468 45.7584 53.5815 45.9447 54.7121L49.132 70.1833C51.1116 77.3759 52.1638 84.8885 53.8392 92.1652C54.2078 93.7663 54.3721 95.8055 55.117 97.2559L55.1479 97.2683L55.7782 97.3243L57.0977 104.161L57.7605 104.532L57.2658 106.099C52.4622 103.783 48.4517 100.105 45.3209 95.8185C43.3147 93.3768 40.1991 91.4145 37.7193 89.4399L38.0444 87.8541L39.7348 58.0332L40.8701 41.4417C40.522 40.7782 39.8451 40.4236 39.2366 40.0258L38.8818 40.0984C37.456 38.8745 34.4861 37.6861 32.7158 37.0356C33.2842 36.529 33.4239 36.0772 34.153 35.6817Z"/>
	<path fill="#707073" d="M45.3209 95.8185C47.8478 97.2796 50.0468 99.045 52.3439 100.832C53.624 101.828 54.9047 102.996 56.3955 103.66L55.1479 97.2683L55.7782 97.3243L57.0977 104.161L57.7605 104.532L57.2658 106.099C52.4622 103.783 48.4517 100.105 45.3209 95.8185Z"/>
	<path fill="#5B5B5C" d="M34.153 35.6817L40.3752 38.934L41.5178 36.2417L42.3478 35.9466L42.7789 36.1828L41.2154 39.4808C41.8522 39.8209 42.2904 40.0718 43.035 39.9671C43.3837 40.6969 43.7773 41.2999 44.2795 41.9333C44.8278 41.9734 45.3958 42.0482 45.9435 41.9845C45.1048 42.2838 44.6627 42.0456 44.2611 42.875L45.467 49.1984L45.0022 49.5111L42.8816 41.375C42.2156 40.8138 41.9756 40.8071 41.125 40.7123L40.8701 41.4417C40.522 40.7782 39.8451 40.4236 39.2366 40.0258L38.8818 40.0984C37.456 38.8745 34.4861 37.6861 32.7158 37.0356C33.2842 36.529 33.4239 36.0772 34.153 35.6817Z"/>
	<defs>
		<linearGradient id="gradient_10" gradientUnits="userSpaceOnUse" x1="66.516792" y1="74.214828" x2="76.042328" y2="75.964378">
			<stop offset="0" stop-color="#616263"/>
			<stop offset="1" stop-color="#908F90"/>
		</linearGradient>
	</defs>
	<path fill="url(#gradient_10)" d="M68.7092 42.465L72.9316 40.0868C73.0507 40.9624 73.4998 41.263 73.9031 41.9844C75.6596 45.126 78.7011 48.2249 79.8505 51.6116L80.375 52.2553C80.898 52.2853 81.3891 52.269 81.9099 52.2135L81.9495 52.3124C81.7832 52.4243 81.4134 52.6049 81.2992 52.75C81.153 52.9358 81.0124 53.8805 80.9387 54.1718L79.7506 58.9891L79.6463 59.6778L78.3373 64.7003C77.9653 67.0731 77.2792 69.3183 76.7629 71.6562C76.6083 72.3558 76.2513 73.3963 76.313 74.1L76.6275 74.25L76.8176 75.2317C76.5538 76.1363 76.3664 76.465 76.625 77.388L77.5836 78.0597L78.7395 78.7618C78.9876 79.8744 78.4351 80.6197 78.6592 81.8299L77.8856 82.7679C77.3872 83.0861 76.2388 84.0221 75.704 84.0737C74.8971 84.0687 74.2963 84.0381 73.614 84.5237L68.4015 106.665C69.6855 106.641 71.022 106.673 72.2978 106.531C73.1594 106.435 74.4545 105.85 75.2627 106.089C72.9132 106.889 70.9558 107.207 68.5493 107.602C66.5363 107.933 65.8523 108.408 63.7119 107.889C63.5662 105.915 64.2041 103.981 64.3826 102.015L64.9468 99.4752C64.6765 99.3962 64.3653 99.4385 64.0857 99.448L64.9885 95.1817L65.3737 94.0832L66.2122 94.1775L67.0795 90.4103C66.7869 90.2721 66.7708 90.0058 66.3347 89.8661C65.2753 89.8905 64.2441 89.644 63.2116 89.4354C64.4456 88.2729 64.1972 85.9918 64.2596 84.3899L64.3311 84.1687C64.773 82.7944 65.0693 82.2032 64.9808 80.718L65.1064 79.7943C64.905 79.6041 64.7756 79.1368 64.6716 78.875C65.3244 77.664 64.8567 75.8713 65.7626 74.6779L66.2474 73.2858C65.7216 72.0949 66.6671 69.2785 66.8838 67.8861C66.6127 67.7652 66.2052 67.815 65.9089 67.8136L65.9867 66.1207C64.9676 65.168 63.9646 63.9021 63.4079 62.6255C61.6879 58.682 61.9836 54.3475 63.5121 50.4118L64.9581 47.233C65.8362 45.7577 66.9525 44.6943 68.0841 43.4289L68.7092 42.465ZM68.0841 43.4289C66.9525 44.6943 65.8362 45.7577 64.9581 47.233L63.5121 50.4118C61.9836 54.3475 61.6879 58.682 63.4079 62.6255C63.9646 63.9021 64.9676 65.168 65.9867 66.1207C66.5101 65.2945 66.7295 64.4755 66.9605 63.5321L67.6305 60.2804C67.8894 59.3168 68.1249 57.8517 68.0016 56.8612C67.8943 55.9985 66.8661 54.1158 67.101 53.375C67.2319 52.9623 67.891 52.5335 67.9989 52.125C68.223 51.2769 68.1164 49.7832 68.224 48.833C68.3687 48.3442 68.72 47.9303 69.0141 47.5209C69.2682 47.4437 69.5369 47.3364 69.752 47.1768C70.6504 46.5104 70.8896 45.8438 71.0728 44.8181C70.9075 44.7341 70.7471 44.658 70.5609 44.6375C69.5376 44.525 68.8964 44.0112 68.0841 43.4289Z"/>
	<path fill="#8C8B8E" d="M65.3737 94.0832L66.2122 94.1775C65.836 95.8816 65.7736 97.9456 64.9468 99.4752C64.6765 99.3962 64.3653 99.4385 64.0857 99.448L64.9885 95.1817L65.3737 94.0832Z"/>
	<path fill="#A4A3A9" d="M79.8505 51.6116L80.375 52.2553C80.898 52.2853 81.3891 52.269 81.9099 52.2135L81.9495 52.3124C81.7832 52.4243 81.4134 52.6049 81.2992 52.75C81.153 52.9358 81.0124 53.8805 80.9387 54.1718L79.7506 58.9891L79.6463 59.6778L78.3373 64.7003L78.2171 64.7022L78.0625 64.3125C78.3661 63.7013 78.2504 62.7885 78.5458 62.2949C78.7529 61.949 78.7074 61.642 78.6887 61.25C78.9987 60.9677 78.8783 60.5999 79.0493 60.2612C79.3228 59.7196 79.1894 59.1302 79.5 58.5C79.2329 58.128 79.1123 57.8304 79.0156 57.3833C78.3993 58.004 77.801 61.8965 77.4388 63.0429L77.2793 62.875L79.8505 51.6116Z"/>
	<path fill="#9B9B9E" d="M72.0932 68.4757L70.4824 75.8616L69.8111 75.3553C68.8515 74.7403 66.8942 74.7953 65.7626 74.6779L66.2474 73.2858L66.5448 73.2013C67.3458 72.8625 67.4764 72.6407 67.9592 71.9344C68.5883 71.6462 69.7023 71.7054 70.4063 71.6493C70.821 70.8359 71.0235 70.2034 71.0877 69.2908L72.0932 68.4757Z"/>
	<path fill="#664D6E" d="M67.9592 71.9344C68.5883 71.6462 69.7023 71.7054 70.4063 71.6493C70.242 72.5611 70.2895 73.0456 69.625 73.7115L66.5448 73.2013C67.3458 72.8625 67.4764 72.6407 67.9592 71.9344Z"/>
	<path fill="#39383A" d="M76.313 74.1L76.6275 74.25L76.8176 75.2317C76.5538 76.1363 76.3664 76.465 76.625 77.388L77.5836 78.0597L78.7395 78.7618C78.9876 79.8744 78.4351 80.6197 78.6592 81.8299L77.8856 82.7679C77.3872 83.0861 76.2388 84.0221 75.704 84.0737C74.8971 84.0687 74.2963 84.0381 73.614 84.5237L76.313 74.1Z"/>
	<path fill="#A4A3A9" d="M65.7626 74.6779C66.8942 74.7953 68.8515 74.7403 69.8111 75.3553L70.4824 75.8616L67.0795 90.4103C66.7869 90.2721 66.7708 90.0058 66.3347 89.8661C65.2753 89.8905 64.2441 89.644 63.2116 89.4354C64.4456 88.2729 64.1972 85.9918 64.2596 84.3899L64.3311 84.1687C64.773 82.7944 65.0693 82.2032 64.9808 80.718L65.1064 79.7943C64.905 79.6041 64.7756 79.1368 64.6716 78.875C65.3244 77.664 64.8567 75.8713 65.7626 74.6779Z"/>
	<path fill="#9877A1" d="M65.1064 79.7943C65.793 80.5321 66.8361 82.2719 66.8227 83.3037L66.4851 83.3002C66.4868 84.0687 66.8058 84.6981 66.9223 85.4425C67.0269 86.1105 66.8836 86.9163 66.7956 87.5847L66.0145 85.875C65.6004 85.5817 65.2065 85.4406 64.7227 85.2952L64.2596 84.3899L64.3311 84.1687C64.773 82.7944 65.0693 82.2032 64.9808 80.718L65.1064 79.7943Z"/>
	<path fill="#7B659E" d="M64.2596 84.3899L64.7227 85.2952C65.2065 85.4406 65.6004 85.5817 66.0145 85.875L66.7956 87.5847L66.3347 89.8661C65.2753 89.8905 64.2441 89.644 63.2116 89.4354C64.4456 88.2729 64.1972 85.9918 64.2596 84.3899Z"/>
	<path fill="#7B659E" d="M65.7626 74.6779C66.8942 74.7953 68.8515 74.7403 69.8111 75.3553C69.247 77.0262 68.4109 78.7609 68.072 80.4814C67.978 80.9584 67.7091 81.6882 67.7018 82.125C67.6978 82.3708 67.9314 83.0853 67.8725 83.25C67.8481 83.3184 67.5642 83.5583 67.5 83.6225L66.8227 83.3037C66.8361 82.2719 65.793 80.5321 65.1064 79.7943C64.905 79.6041 64.7756 79.1368 64.6716 78.875C65.3244 77.664 64.8567 75.8713 65.7626 74.6779Z"/>
	<path fill="#7B659E" d="M68.4352 60.9466C68.7208 59.92 68.9336 58.5856 69.625 57.7564L70.5008 57.9957C71.3784 58.4566 72.4508 58.5661 72.9846 59.375L73.0235 62.0389L73.5985 61.8126L72.5619 67.0526C72.4625 67.5337 72.1452 68.0029 72.0932 68.4757L71.0877 69.2908C71.0235 70.2034 70.821 70.8359 70.4063 71.6493C69.7023 71.7054 68.5883 71.6462 67.9592 71.9344C67.4764 72.6407 67.3458 72.8625 66.5448 73.2013L66.2474 73.2858C65.7216 72.0949 66.6671 69.2785 66.8838 67.8861C66.6127 67.7652 66.2052 67.815 65.9089 67.8136L65.9867 66.1207C66.5101 65.2945 66.7295 64.4755 66.9605 63.5321C67.358 63.331 67.7631 63.1408 68.1225 62.875C67.9754 62.1005 68.1287 61.6552 68.4352 60.9466Z"/>
	<path fill="#2E2F32" d="M68.4352 60.9466C68.7208 59.92 68.9336 58.5856 69.625 57.7564L70.5008 57.9957C70.3658 59.4105 69.7606 61.2523 69.8784 62.6091C69.9652 63.6075 71.5115 64.7769 71.7174 65.75C71.791 66.0983 71.7286 66.614 71.7333 66.9805C70.7997 66.6216 70.3133 65.0963 69.7613 64.2292C69.3844 63.6372 68.8756 63.1242 68.375 62.6362L68.4352 60.9466Z"/>
	<path fill="#A4A3A9" d="M66.9605 63.5321C67.358 63.331 67.7631 63.1408 68.1225 62.875C67.9754 62.1005 68.1287 61.6552 68.4352 60.9466L68.375 62.6362C68.8756 63.1242 69.3844 63.6372 69.7613 64.2292C70.3133 65.0963 70.7997 66.6216 71.7333 66.9805L71.8991 66.7697C71.9544 65.2338 72.6479 63.5483 73.0235 62.0389L73.5985 61.8126L72.5619 67.0526C72.4625 67.5337 72.1452 68.0029 72.0932 68.4757L71.0877 69.2908C70.8034 68.2436 70.6151 68.2277 69.6986 67.625C69.7385 67.3926 69.7814 67.1064 69.727 66.875C69.5318 66.0464 68.9004 64.6668 68.25 64.1998C67.6967 64.6616 67.6189 65.0923 67.3626 65.7578L66.8838 67.8861C66.6127 67.7652 66.2052 67.815 65.9089 67.8136L65.9867 66.1207C66.5101 65.2945 66.7295 64.4755 66.9605 63.5321Z"/>
	<path fill="#4A4054" d="M67.3626 65.7578C67.6189 65.0923 67.6967 64.6616 68.25 64.1998C68.9004 64.6668 69.5318 66.0464 69.727 66.875C69.7814 67.1064 69.7385 67.3926 69.6986 67.625C70.6151 68.2277 70.8034 68.2436 71.0877 69.2908C71.0235 70.2034 70.821 70.8359 70.4063 71.6493C69.7023 71.7054 68.5883 71.6462 67.9592 71.9344C67.4764 72.6407 67.3458 72.8625 66.5448 73.2013L66.2474 73.2858C65.7216 72.0949 66.6671 69.2785 66.8838 67.8861L67.3626 65.7578Z"/>
	<path fill="#28282B" d="M67.3626 65.7578C68.7165 67.8166 68.0327 69.6267 67.9592 71.9344C67.4764 72.6407 67.3458 72.8625 66.5448 73.2013L66.2474 73.2858C65.7216 72.0949 66.6671 69.2785 66.8838 67.8861L67.3626 65.7578Z"/>
	<path fill="#B9B6BD" d="M71.0728 44.8181L71.375 43.5877L71.6671 43.504C71.7349 44.1688 71.7405 45.1227 71.9968 45.7327C72.2008 46.2183 72.6686 46.5756 72.9699 47C73.82 48.1977 75.2357 50.0773 75.7627 51.375C75.8792 51.6619 75.7828 52.6273 75.7599 52.9789C75.6879 54.0845 75.2266 55.2848 74.9346 56.3544L73.5985 61.8126L73.0235 62.0389L72.9846 59.375C72.4508 58.5661 71.3784 58.4566 70.5008 57.9957L69.625 57.7564C68.9336 58.5856 68.7208 59.92 68.4352 60.9466C68.1287 61.6552 67.9754 62.1005 68.1225 62.875C67.7631 63.1408 67.358 63.331 66.9605 63.5321L67.6305 60.2804C67.8894 59.3168 68.1249 57.8517 68.0016 56.8612C67.8943 55.9985 66.8661 54.1158 67.101 53.375C67.2319 52.9623 67.891 52.5335 67.9989 52.125C68.223 51.2769 68.1164 49.7832 68.224 48.833C68.3687 48.3442 68.72 47.9303 69.0141 47.5209C69.2682 47.4437 69.5369 47.3364 69.752 47.1768C70.6504 46.5104 70.8896 45.8438 71.0728 44.8181Z"/>
	<path fill="#2E2F32" d="M69.9752 54.1813C70.904 52.1514 70.6037 49.3663 71.75 47.4857C72.3062 47.6459 72.3242 47.7642 72.64 48.25L72.0754 49.5069C71.9125 51.7328 71.933 54.1851 70.7188 56.125L70.125 56.2613C69.9435 55.5671 69.9659 54.8924 69.9752 54.1813Z"/>
	<path fill="#7B659E" d="M69.9752 54.1813C69.9659 54.8924 69.9435 55.5671 70.125 56.2613L70.7188 56.125C71.933 54.1851 71.9125 51.7328 72.0754 49.5069L72.375 50.4545C73.1618 50.661 73.9293 50.8337 74.625 51.2717C75.2472 52.6389 74.6884 54.6423 74.1785 56.0093C74.0207 56.4323 73.8396 56.5389 73.5 56.826C72.4287 56.8071 70.7856 56.4045 69.8627 56.625L69.625 56.3L69.9752 54.1813Z"/>
	<path fill="#0587EB" d="M68.0841 43.4289C68.8964 44.0112 69.5376 44.525 70.5609 44.6375C70.7471 44.658 70.9075 44.7341 71.0728 44.8181C70.8896 45.8438 70.6504 46.5104 69.752 47.1768C69.5369 47.3364 69.2682 47.4437 69.0141 47.5209C68.72 47.9303 68.3687 48.3442 68.224 48.833C68.1164 49.7832 68.223 51.2769 67.9989 52.125C67.891 52.5335 67.2319 52.9623 67.101 53.375C66.8661 54.1158 67.8943 55.9985 68.0016 56.8612C68.1249 57.8517 67.8894 59.3168 67.6305 60.2804L66.9605 63.5321C66.7295 64.4755 66.5101 65.2945 65.9867 66.1207C64.9676 65.168 63.9646 63.9021 63.4079 62.6255C61.6879 58.682 61.9836 54.3475 63.5121 50.4118L64.9581 47.233C65.8362 45.7577 66.9525 44.6943 68.0841 43.4289ZM64.1282 54.1554C63.8819 55.047 63.3526 56.6101 63.8407 57.4577C64.3684 58.3742 65.749 59.0936 66.71 59.4955C66.7555 59.2165 66.7277 59.2172 66.5663 58.9799L67.5 58.875L67.1275 59.25C67.2007 59.7223 67.291 59.9411 67.6305 60.2804C67.8894 59.3168 68.1249 57.8517 68.0016 56.8612C67.8943 55.9985 66.8661 54.1158 67.101 53.375C67.2319 52.9623 67.891 52.5335 67.9989 52.125C68.223 51.2769 68.1164 49.7832 68.224 48.833C66.7145 50.0277 65.3451 51.9067 64.4336 53.6132C64.3977 53.6806 64.1647 54.1538 64.1282 54.1554Z"/>
	<path fill="#08B7FF" fill-opacity="0.98823529" d="M64.1282 54.1554C64.1647 54.1538 64.3977 53.6806 64.4336 53.6132C65.3451 51.9067 66.7145 50.0277 68.224 48.833C68.1164 49.7832 68.223 51.2769 67.9989 52.125C67.891 52.5335 67.2319 52.9623 67.101 53.375C66.8661 54.1158 67.8943 55.9985 68.0016 56.8612C68.1249 57.8517 67.8894 59.3168 67.6305 60.2804C67.291 59.9411 67.2007 59.7223 67.1275 59.25L67.5 58.875L66.5663 58.9799C66.7277 59.2172 66.7555 59.2165 66.71 59.4955C65.749 59.0936 64.3684 58.3742 63.8407 57.4577C63.3526 56.6101 63.8819 55.047 64.1282 54.1554Z"/>
</svg>
