<?xml version="1.0" encoding="utf-8" ?>
<svg xmlns="http://www.w3.org/2000/svg" xmlns:xlink="http://www.w3.org/1999/xlink" width="116" height="116">
	<path fill="#10120D" d="M93.6854 29.3157C95.5627 31.2315 96.5611 34.1522 96.5988 36.8191C96.2063 35.6269 95.449 34.8637 94.988 33.7196C94.0165 31.7522 92.7422 30.9951 91.125 29.6524L91.4078 29.435C92.1593 29.4832 92.9353 29.3781 93.6854 29.3157Z"/>
	<path fill="#653946" d="M24.5786 28.134L23.9089 30.0748C23.606 30.9811 23.3459 31.728 22.6957 32.4439L21.7286 32.779C21.4569 32.4167 21.1974 32.0504 20.9863 31.6487C20.5373 30.7945 20.4587 30.6779 20.739 29.7737C20.8233 29.3509 21.0508 29.0755 21.3571 28.7881C22.2663 27.9348 23.4233 28.1015 24.5786 28.134Z"/>
	<defs>
		<linearGradient id="gradient_0" gradientUnits="userSpaceOnUse" x1="69.09259" y1="27.032806" x2="72.060989" y2="13.781608">
			<stop offset="0" stop-color="#506385"/>
			<stop offset="1" stop-color="#8399BA"/>
		</linearGradient>
	</defs>
	<path fill="url(#gradient_0)" d="M42.5006 9.3227C46.1639 8.468 49.1609 8.43119 52.8732 8.9687L64.1424 9.47815C66.7091 9.69596 70.2032 9.94381 72.4105 11.322L72.4132 11.3621C78.156 13.8586 83.2524 19.3911 85.7545 25.1375C84.6679 25.4692 82.5463 25.1273 81.3687 25.0928C76.7648 24.9579 71.7508 24.4558 67.1827 24.9277C66.3278 24.9778 65.3439 24.9869 64.5343 25.2758C63.956 25.4821 62.6837 26.4753 62.244 26.4403L59.6621 21.9658C59.6199 20.2829 58.4987 19.8454 57.814 18.5465C57.5412 18.029 57.1611 17.47 56.625 17.25L57.194 15.6875C56.6997 14.8766 55.6691 14.316 54.9156 13.7519C52.0541 11.6095 49.914 10.6234 46.3124 10.3241C45.6288 10.2673 44.6606 10.3169 44.0468 10.0123L42.5006 9.3227Z"/>
	<defs>
		<linearGradient id="gradient_1" gradientUnits="userSpaceOnUse" x1="61.423759" y1="14.634954" x2="61.84745" y2="9.6136971">
			<stop offset="0" stop-color="#7E94B6"/>
			<stop offset="1" stop-color="#A4B8D8"/>
		</linearGradient>
	</defs>
	<path fill="url(#gradient_1)" d="M52.8732 8.9687L64.1424 9.47815C66.7091 9.69596 70.2032 9.94381 72.4105 11.322L72.4132 11.3621C72.98 12.3995 74.4369 12.8316 75.4282 13.4583C76.117 13.8937 76.6236 14.4341 77.3762 14.8125L77.1695 15.3299C76.4443 15.3369 74.9178 15.6872 74.3167 15.5002L74.2304 15.4716L74.0253 15.584C73.543 15.8213 72.9013 15.9544 72.3854 15.7781C71.5729 15.5003 70.602 15.6945 69.75 15.6216C67.7427 15.4498 65.5747 15.3796 63.5798 15.0877L59.8538 14.3879C59.4009 14.2904 58.9878 13.9413 58.5206 13.9357L58.4512 13.9364C57.4226 13.9405 54.3089 11.5827 53.4021 10.9746C52.3886 10.2949 50.9853 10.5952 50.041 9.70928C49.8823 9.5604 46.7172 9.63274 46.25 9.6275L46.3841 9.34133C46.7901 9.29414 47.3549 9.17038 47.7429 9.30605C48.5413 9.58521 49.1522 8.9607 49.8269 9.0576C50.8515 9.20474 51.8046 9.06836 52.8732 8.9687Z"/>
	<defs>
		<linearGradient id="gradient_2" gradientUnits="userSpaceOnUse" x1="17.529819" y1="34.051304" x2="84.54393" y2="87.998215">
			<stop offset="0" stop-color="#465977"/>
			<stop offset="1" stop-color="#627695"/>
		</linearGradient>
	</defs>
	<path fill="url(#gradient_2)" d="M39.9137 10.1423C40.7773 9.72851 41.5592 9.49411 42.5006 9.3227L44.0468 10.0123C44.6606 10.3169 45.6288 10.2673 46.3124 10.3241C49.914 10.6234 52.0541 11.6095 54.9156 13.7519C55.6691 14.316 56.6997 14.8766 57.194 15.6875L56.625 17.25C57.1611 17.47 57.5412 18.029 57.814 18.5465C58.4987 19.8454 59.6199 20.2829 59.6621 21.9658L62.244 26.4403C62.6837 26.4753 63.956 25.4821 64.5343 25.2758C65.3439 24.9869 66.3278 24.9778 67.1827 24.9277C71.7508 24.4558 76.7648 24.9579 81.3687 25.0928C82.5463 25.1273 84.6679 25.4692 85.7545 25.1375C87.2611 25.6491 89.5104 26.1533 90.7989 27.0684C91.8793 27.7334 92.8644 28.3251 93.6854 29.3157C92.9353 29.3781 92.1593 29.4832 91.4078 29.435L91.125 29.6524C92.7422 30.9951 94.0165 31.7522 94.988 33.7196C95.449 34.8637 96.2063 35.6269 96.5988 36.8191C96.9898 39.5008 96.9364 42.1636 96.9709 44.8643L97.0012 57.5392C96.9954 60.6627 97.3151 64.2263 96.8764 67.2979C97.4972 70.93 96.6035 76.238 94.4633 79.2191L93.76 80.0602C92.3407 81.7279 90.1674 82.251 88.8705 83.7293L86.7532 86.6237C86.2772 87.6907 85.939 88.8958 85.3591 89.8994C83.2405 93.5665 79.2455 96.4082 75.336 97.9246C70.1715 99.9277 64.3906 99.9282 58.9276 100.159C56.527 100.26 54.0785 100.519 51.6782 100.436C47.8828 100.572 44.0026 100.759 40.347 99.5535C33.4853 97.2905 28.4081 91.6652 25.2394 85.3281C18.9335 72.7173 18.225 57.2984 19.763 43.496C20.18 39.7534 20.5293 36.3754 21.7286 32.779L22.6957 32.4439C23.3459 31.728 23.606 30.9811 23.9089 30.0748L24.5786 28.134C26.2523 24.8302 27.6144 21.434 29.7771 18.3878C32.4251 14.6581 35.9541 12.2665 39.9137 10.1423ZM55.2127 18.4415C53.998 19.8902 52.6964 21.3565 51.7028 22.9673C44.7912 34.1717 43.5854 49.5413 44.7192 62.3939C45.3889 69.9855 47.3664 78.13 51.6607 84.5206C52.5124 85.7881 53.4287 87.1994 54.6125 88.1848L55.477 88.8427L57.1666 87.0644C58.5832 85.3517 58.997 83.689 59.6257 81.6035L57.6362 77.9909C59.197 78.2616 59.9882 78.9299 60.8864 80.2194L61.0089 80.4073C63.152 81.0102 66.0667 81.761 68.2836 81.2838C69.2454 81.0149 70.3413 81.0359 71.3371 80.9761C70.7141 80.5304 69.8954 80.3916 69.2017 80.0704C68.461 79.7276 66.6683 78.1814 66.0197 78.2647L65.9175 79.625C65.3415 79.4805 65.2792 79.1854 64.9745 78.7025L65.3784 78.3664L64.747 68.3887L64.7636 65.361C64.4102 62.5374 64.7342 59.3865 64.762 56.5295L64.6346 49.2757L64.7904 39.5692L64.7128 39.3061C64.4427 38.8351 64.5276 38.1359 64.4526 37.6026C64.3632 36.9678 64.0957 36.3138 63.8731 35.7162L63.8781 35.6431C63.7989 35.5431 63.7228 35.4379 63.6632 35.3248C63.3956 34.8167 63.0905 33.1941 63.2468 32.6644C63.6222 31.8583 64.7953 31.2961 65.2562 30.3539L65.2818 30.2999L65.6888 30.2609L65.7222 31.2309L66.1028 31.3662C67.3543 30.4037 69.0434 29.7568 69.5598 28.2701L67.266 27.4851C66.7102 27.8557 66.2779 27.7909 65.625 27.8179L65.1678 27.25C65.6704 26.6071 65.8754 26.4502 66.625 26.1275C66.8649 25.7673 67.0512 25.4543 67.1576 25.0311L67.1827 24.9277C66.3278 24.9778 65.3439 24.9869 64.5343 25.2758C63.956 25.4821 62.6837 26.4753 62.244 26.4403L59.6621 21.9658C58.8484 20.8226 57.388 18.1276 56.125 17.6086L55.2127 18.4415Z"/>
	<path fill="#3C6080" d="M39.9137 10.1423C40.7773 9.72851 41.5592 9.49411 42.5006 9.3227L44.0468 10.0123C44.6606 10.3169 45.6288 10.2673 46.3124 10.3241C49.914 10.6234 52.0541 11.6095 54.9156 13.7519C55.6691 14.316 56.6997 14.8766 57.194 15.6875L56.625 17.25C57.1611 17.47 57.5412 18.029 57.814 18.5465C58.4987 19.8454 59.6199 20.2829 59.6621 21.9658C58.8484 20.8226 57.388 18.1276 56.125 17.6086L55.2127 18.4415L55.004 18.3277L55.6875 17.1262C53.3673 14.5464 50.5236 13.1892 47.3033 12.0717L47.375 11.6275C48.2942 12.0358 49.5231 12.2494 50.313 12.8296C50.4546 12.9337 50.9316 12.8769 51.125 12.8775C50.1517 12.2084 49.2646 11.4625 48.1703 11.0966C46.6846 10.5998 44.3002 11.3819 43.0419 10.6422L43.1275 10.125C41.9318 10.2794 41.1186 10.4363 39.9137 10.1423Z"/>
	<path fill="#42444E" d="M57.6362 77.9909C59.197 78.2616 59.9882 78.9299 60.8864 80.2194L61.0089 80.4073C61.6865 82.35 61.6855 83.9114 60.8084 85.7785C60.6422 86.1322 60.4276 86.3967 60.1587 86.6755L59.9244 86.9342C59.8597 87.008 59.825 87.0864 59.7836 87.1744C59.2778 88.2483 56.9066 90.1919 55.8621 90.8413C54.3171 92.2491 52.5385 93.3356 50.6813 94.2863C49.9433 94.6642 49.4628 94.8691 48.625 94.5979C51.0565 93.7584 52.8372 92.3295 54.8651 90.8029C55.6499 90.2122 56.4278 89.873 57.0605 89.0491C57.4926 88.4865 57.2459 87.7091 57.1666 87.0644C58.5832 85.3517 58.997 83.689 59.6257 81.6035L57.6362 77.9909Z"/>
	<path fill="#272C37" d="M92.8104 79.9423L93.76 80.0602C92.3407 81.7279 90.1674 82.251 88.8705 83.7293L86.7532 86.6237L86.3008 86.1709C85.7703 85.452 85.3592 84.9752 84.5462 84.5823C81.0882 85.1889 77.1101 85.2243 73.5922 85.306C71.1545 85.3626 66.5925 84.7484 64.5 85.7673L64.4827 85.8251C64.1918 86.7661 63.4831 87.0347 62.875 87.722C61.1161 89.7099 59.4695 91.967 57.0462 93.2155L56.875 93.3001L56.8762 92.9375C57.3368 92.7117 57.6623 92.5144 58 92.125C57.5304 91.7131 57.0938 92.0085 56.6632 91.766C56.4332 91.6364 56.054 91.0628 55.8621 90.8413C56.9066 90.1919 59.2778 88.2483 59.7836 87.1744C59.825 87.0864 59.8597 87.008 59.9244 86.9342L60.1587 86.6755C60.4276 86.3967 60.6422 86.1322 60.8084 85.7785C61.6855 83.9114 61.6865 82.35 61.0089 80.4073C63.152 81.0102 66.0667 81.761 68.2836 81.2838C69.2454 81.0149 70.3413 81.0359 71.3371 80.9761C71.864 81.1765 72.8544 81.0505 73.4328 81.0493L79.7433 80.8764C82.4371 80.8303 85.2077 81.1791 87.8813 80.8111L92.8104 79.9423Z"/>
	<path fill="#787471" d="M92.8104 79.9423L92.6225 80.625C88.547 82.3754 83.8936 82.2247 79.5216 82.3985C76.0276 82.5375 71.9858 82.9175 68.6104 81.875L68.2836 81.2838C69.2454 81.0149 70.3413 81.0359 71.3371 80.9761C71.864 81.1765 72.8544 81.0505 73.4328 81.0493L79.7433 80.8764C82.4371 80.8303 85.2077 81.1791 87.8813 80.8111L92.8104 79.9423Z"/>
	<path fill="#627189" d="M86.3008 86.1709L86.7532 86.6237C86.2772 87.6907 85.939 88.8958 85.3591 89.8994C83.2405 93.5665 79.2455 96.4082 75.336 97.9246C70.1715 99.9277 64.3906 99.9282 58.9276 100.159C56.527 100.26 54.0785 100.519 51.6782 100.436L51.7144 100.381L51.3957 100.116C53.1395 99.0168 55.2341 98.2786 57.0673 97.2847C57.9017 96.8323 59.2862 95.6926 60.093 95.4674C60.5553 95.3384 60.9466 94.827 61.2835 94.4865C62.1103 93.6511 62.8869 92.7575 63.4988 91.7488C63.9941 90.9321 64.27 89.9573 64.831 89.1807L64.8725 89.125L64.6225 88.5L64.8725 88.125C65.554 88.1235 65.7754 88.0435 66.3725 87.875C66.944 87.7137 68.176 87.8759 68.8222 87.8751L75.8333 87.8668C76.8529 87.8639 78.1345 87.9978 79.125 87.8381C79.93 87.7083 81.3059 87.8108 82 87.6036C82.2005 87.5437 82.4282 87.1739 82.625 87.1275C82.8546 87.0734 83.2552 87.2836 83.5 87.25C83.6469 87.2298 83.8462 86.9838 84 86.9387C84.3889 86.8248 85.1941 86.9646 85.625 87L86.3008 86.1709Z"/>
	<defs>
		<linearGradient id="gradient_3" gradientUnits="userSpaceOnUse" x1="68.924088" y1="30.056152" x2="55.893536" y2="33.607288">
			<stop offset="0" stop-color="#0D1015"/>
			<stop offset="1" stop-color="#33373F"/>
		</linearGradient>
	</defs>
	<path fill="url(#gradient_3)" d="M62.244 26.4403C62.6837 26.4753 63.956 25.4821 64.5343 25.2758C65.3439 24.9869 66.3278 24.9778 67.1827 24.9277L67.1576 25.0311C67.0512 25.4543 66.8649 25.7673 66.625 26.1275C65.8754 26.4502 65.6704 26.6071 65.1678 27.25L65.625 27.8179C66.2779 27.7909 66.7102 27.8557 67.266 27.4851L69.5598 28.2701C69.0434 29.7568 67.3543 30.4037 66.1028 31.3662L65.7222 31.2309L65.6888 30.2609L65.2818 30.2999L65.2562 30.3539C64.7953 31.2961 63.6222 31.8583 63.2468 32.6644L62.875 31.3373C62.3481 31.2195 62.2269 31.2625 61.7692 31.5515C60.765 32.1856 60.4898 33.2613 60.2534 34.3568C59.9726 35.6582 60.0465 37.1744 60.3812 38.4652L59.9515 39.1847L59.3703 38.9025L58.7092 39.7722C58.4938 39.5453 58.2647 39.0358 58.0303 38.875C57.5222 38.5265 56.1977 38.3807 55.5641 38.269C56.4035 37.5085 56.331 36.3991 56.5408 35.3692C56.875 33.729 57.2725 31.8198 58.1503 30.3895C59.1942 28.6886 60.8967 27.8295 62.244 26.4403Z"/>
	<defs>
		<linearGradient id="gradient_4" gradientUnits="userSpaceOnUse" x1="71.464035" y1="62.117805" x2="55.216541" y2="59.939911">
			<stop offset="0" stop-color="#0B0A0F"/>
			<stop offset="1" stop-color="#25292D"/>
		</linearGradient>
	</defs>
	<path fill="url(#gradient_4)" d="M60.3812 38.4652C60.0465 37.1744 59.9726 35.6582 60.2534 34.3568C60.4898 33.2613 60.765 32.1856 61.7692 31.5515C62.2269 31.2625 62.3481 31.2195 62.875 31.3373L63.2468 32.6644C63.0905 33.1941 63.3956 34.8167 63.6632 35.3248C63.7228 35.4379 63.7989 35.5431 63.8781 35.6431L63.8731 35.7162C64.0957 36.3138 64.3632 36.9678 64.4526 37.6026C64.5276 38.1359 64.4427 38.8351 64.7128 39.3061L64.7904 39.5692L64.6346 49.2757L64.762 56.5295C64.7342 59.3865 64.4102 62.5374 64.7636 65.361L64.747 68.3887L65.3784 78.3664L64.9745 78.7025C65.2792 79.1854 65.3415 79.4805 65.9175 79.625L66.0197 78.2647C66.6683 78.1814 68.461 79.7276 69.2017 80.0704C69.8954 80.3916 70.7141 80.5304 71.3371 80.9761C70.3413 81.0359 69.2454 81.0149 68.2836 81.2838C66.0667 81.761 63.152 81.0102 61.0089 80.4073L60.8864 80.2194C59.9882 78.9299 59.197 78.2616 57.6362 77.9909C56.592 75.8694 56.4677 73.0612 56.3055 70.7378C55.8953 64.8637 56.0706 58.8932 56.0633 53.0031C56.0619 51.8464 56.3392 49.3379 55.9885 48.3205C55.7561 47.646 54.4585 46.4183 54.0245 45.7077L53.9905 45.6434C53.2081 43.8823 53.3747 42.0942 54.0484 40.3484C54.4256 39.617 55.0615 38.9249 55.5641 38.269C56.1977 38.3807 57.5222 38.5265 58.0303 38.875C58.2647 39.0358 58.4938 39.5453 58.7092 39.7722L59.3703 38.9025L59.9515 39.1847L60.3812 38.4652Z"/>
	<path fill="#272C37" d="M60.0227 39.5336C60.3531 39.9802 60.6195 40.3564 61.1225 40.625C61.0551 41.0146 61.0341 41.7192 60.875 42.0564C60.591 42.6583 59.9066 42.9612 59.6311 43.6413L59.2079 40.125L59.7022 40.1591L60.0227 39.5336Z"/>
	<path fill="#42444E" d="M60.7055 47.741C60.2839 53.1239 60.6679 58.3115 60.7487 63.6878C60.7898 66.4271 60.5055 69.6367 60.8567 72.3198C60.9674 73.165 61.1621 73.9285 61.7213 74.595C62.1972 75.1621 62.9481 75.33 63.4069 75.8138C63.7993 76.2275 63.9714 77.1577 64.1305 77.6969C63.6887 77.6424 62.6612 77.6302 62.342 77.3708C60.2126 75.6402 60.205 73.2639 59.8001 70.7679C59.5719 69.3615 59.2594 67.9722 59.1186 66.5528C58.7371 62.7086 59.5619 59.2818 59.8562 55.4969C60.0147 53.4587 59.4055 49.325 60.7055 47.741Z"/>
	<path fill="#42444E" d="M55.5641 38.269C56.1977 38.3807 57.5222 38.5265 58.0303 38.875C58.2647 39.0358 58.4938 39.5453 58.7092 39.7722L59.3703 38.9025L59.9515 39.1847L60.0227 39.5336L59.7022 40.1591L59.2079 40.125L59.6311 43.6413C59.0952 45.0145 58.7063 45.9359 57.625 46.9861L56.8538 47.1238L56.5052 46.7595C55.6585 46.4702 54.9475 45.9657 54.0245 45.7077L53.9905 45.6434C53.2081 43.8823 53.3747 42.0942 54.0484 40.3484C54.4256 39.617 55.0615 38.9249 55.5641 38.269Z"/>
	<path fill="#653946" d="M55.5641 38.269C56.1977 38.3807 57.5222 38.5265 58.0303 38.875C58.2647 39.0358 58.4938 39.5453 58.7092 39.7722L59.3703 38.9025L59.9515 39.1847L60.0227 39.5336L59.7022 40.1591L59.2079 40.125L59.6311 43.6413C59.0952 45.0145 58.7063 45.9359 57.625 46.9861L56.8538 47.1238L56.5052 46.7595C56.7975 46.005 57.5579 45.7166 57.8978 44.9059C58.2352 44.101 57.7624 42.1601 57.9467 41.1146L57.96 41.0422C56.5295 39.604 55.8191 40.4539 54.0484 40.3484C54.4256 39.617 55.0615 38.9249 55.5641 38.269Z"/>
	<path fill="#627189" d="M60.3812 38.4652C60.0465 37.1744 59.9726 35.6582 60.2534 34.3568C60.4898 33.2613 60.765 32.1856 61.7692 31.5515C62.2269 31.2625 62.3481 31.2195 62.875 31.3373L63.2468 32.6644C63.0905 33.1941 63.3956 34.8167 63.6632 35.3248C63.7228 35.4379 63.7989 35.5431 63.8781 35.6431L63.8731 35.7162C64.0957 36.3138 64.3632 36.9678 64.4526 37.6026C64.5276 38.1359 64.4427 38.8351 64.7128 39.3061L64.7904 39.5692L64.6346 49.2757L64.762 56.5295C64.7342 59.3865 64.4102 62.5374 64.7636 65.361L64.747 68.3887L65.3784 78.3664L64.9745 78.7025L64.1305 77.6969C63.9714 77.1577 63.7993 76.2275 63.4069 75.8138C62.9481 75.33 62.1972 75.1621 61.7213 74.595C61.1621 73.9285 60.9674 73.165 60.8567 72.3198C60.5055 69.6367 60.7898 66.4271 60.7487 63.6878C60.6679 58.3115 60.2839 53.1239 60.7055 47.741C62.057 45.9984 62.2992 44.2448 62.4059 42.1165C62.2452 41.5891 61.8844 41.2874 61.625 40.8273C61.1821 40.0417 60.8796 39.2355 60.3812 38.4652Z"/>
	<defs>
		<linearGradient id="gradient_5" gradientUnits="userSpaceOnUse" x1="65.040138" y1="56.656319" x2="62.607784" y2="56.590935">
			<stop offset="0" stop-color="#7A7A82"/>
			<stop offset="1" stop-color="#8E8C8A"/>
		</linearGradient>
	</defs>
	<path fill="url(#gradient_5)" d="M63.8731 35.7162C64.0957 36.3138 64.3632 36.9678 64.4526 37.6026C64.5276 38.1359 64.4427 38.8351 64.7128 39.3061L64.7904 39.5692L64.6346 49.2757L64.762 56.5295C64.7342 59.3865 64.4102 62.5374 64.7636 65.361L64.747 68.3887C64.5173 70.0828 64.7164 72.9971 64.023 74.4728C63.9085 74.7165 64.7066 76.2074 64.5012 77.0012L64.2781 77.0001C64.1111 76.2874 64.0538 75.5069 63.8573 74.8149C63.7202 74.3319 63.3984 74.0773 63.3141 73.5214C62.7895 70.0634 62.9363 66.4202 62.953 62.9326L62.9472 46.6574C62.9639 44.1639 62.8177 41.8161 62.9893 39.2926C63.0743 38.0425 63.1071 36.7645 63.8731 35.7162Z"/>
	<path fill="#3C6080" d="M67.1827 24.9277C71.7508 24.4558 76.7648 24.9579 81.3687 25.0928C82.5463 25.1273 84.6679 25.4692 85.7545 25.1375C87.2611 25.6491 89.5104 26.1533 90.7989 27.0684C91.8793 27.7334 92.8644 28.3251 93.6854 29.3157C92.9353 29.3781 92.1593 29.4832 91.4078 29.435L91.125 29.6524C92.7422 30.9951 94.0165 31.7522 94.988 33.7196C95.449 34.8637 96.2063 35.6269 96.5988 36.8191C96.9898 39.5008 96.9364 42.1636 96.9709 44.8643L97.0012 57.5392C96.9954 60.6627 97.3151 64.2263 96.8764 67.2979C97.4972 70.93 96.6035 76.238 94.4633 79.2191L93.76 80.0602L92.8104 79.9423L87.8813 80.8111C85.2077 81.1791 82.4371 80.8303 79.7433 80.8764L73.4328 81.0493C72.8544 81.0505 71.864 81.1765 71.3371 80.9761C70.7141 80.5304 69.8954 80.3916 69.2017 80.0704C68.461 79.7276 66.6683 78.1814 66.0197 78.2647L65.9175 79.625C65.3415 79.4805 65.2792 79.1854 64.9745 78.7025L65.3784 78.3664L64.747 68.3887L64.7636 65.361C64.4102 62.5374 64.7342 59.3865 64.762 56.5295L64.6346 49.2757L64.7904 39.5692L64.7128 39.3061C64.4427 38.8351 64.5276 38.1359 64.4526 37.6026C64.3632 36.9678 64.0957 36.3138 63.8731 35.7162L63.8781 35.6431C63.7989 35.5431 63.7228 35.4379 63.6632 35.3248C63.3956 34.8167 63.0905 33.1941 63.2468 32.6644C63.6222 31.8583 64.7953 31.2961 65.2562 30.3539L65.2818 30.2999L65.6888 30.2609L65.7222 31.2309L66.1028 31.3662C67.3543 30.4037 69.0434 29.7568 69.5598 28.2701L67.266 27.4851C66.7102 27.8557 66.2779 27.7909 65.625 27.8179L65.1678 27.25C65.6704 26.6071 65.8754 26.4502 66.625 26.1275C66.8649 25.7673 67.0512 25.4543 67.1576 25.0311L67.1827 24.9277Z"/>
	<path fill="#627189" d="M80.2853 61.6729C80.2547 61.1966 80.181 60.6257 80.3033 60.1622C80.4826 59.483 80.7236 59.4133 81.286 59.0869C80.7581 60.2507 80.823 61.2932 80.873 62.5346C81.7801 63.1025 83.2133 64.261 84.25 64.375C84.6127 64.0175 85.0528 64.0102 85.542 63.9055C84.2062 65.2894 82.3855 65.8164 80.6122 66.3935L80.2853 61.6729Z"/>
	<path fill="#10120D" d="M84.0881 80.284C86.7717 80.3539 90.4934 80.2413 92.7056 78.5546C96.1011 75.9655 96.3721 71.1429 96.8764 67.2979C97.4972 70.93 96.6035 76.238 94.4633 79.2191L93.76 80.0602L92.8104 79.9423L87.8813 80.8111L82.75 80.6375L84.0881 80.284Z"/>
	<path fill="#627189" d="M68.7275 42.9451C71.187 43.7812 73.1934 46.4136 74.9786 48.2106C76.1442 49.384 77.5404 50.461 78.2941 51.9719L78.5184 52.4944C78.3066 52.7271 78.0056 52.9843 77.9016 53.2842C77.4685 53.1179 77.3355 53.0139 76.875 53.1225C75.4851 52.3728 74.0728 51.0569 72.9627 49.9306L73.0704 47.75C72.2964 47.0152 72.1415 46.3295 71.5659 45.62C71.3114 45.3063 70.0124 44.3062 69.6275 44.125C69.2175 43.932 68.7924 44.0333 68.3154 43.732L68.4247 43.0322L68.7275 42.9451Z"/>
	<defs>
		<linearGradient id="gradient_6" gradientUnits="userSpaceOnUse" x1="80.618195" y1="62.406319" x2="89.444801" y2="49.987656">
			<stop offset="0" stop-color="#617992"/>
			<stop offset="1" stop-color="#AFADC1"/>
		</linearGradient>
	</defs>
	<path fill="url(#gradient_6)" d="M78.5184 52.4944L80.3871 53.9589L87.0774 46.9843C88.86 50.9381 89.6826 55.5011 88.1114 59.6712C87.547 61.1694 86.6653 62.7449 85.542 63.9055C85.0528 64.0102 84.6127 64.0175 84.25 64.375C83.2133 64.261 81.7801 63.1025 80.873 62.5346C80.823 61.2932 80.7581 60.2507 81.286 59.0869L81.562 59.0758C82.1148 58.7027 82.2009 58.6011 82.4906 58C82.1139 56.7113 81.1137 56.6506 80.2079 55.875C79.425 55.2047 78.6522 54.0616 77.9016 53.2842C78.0056 52.9843 78.3066 52.7271 78.5184 52.4944Z"/>
	<path fill="#274462" d="M67.1827 24.9277C71.7508 24.4558 76.7648 24.9579 81.3687 25.0928C82.5463 25.1273 84.6679 25.4692 85.7545 25.1375C87.2611 25.6491 89.5104 26.1533 90.7989 27.0684C91.8793 27.7334 92.8644 28.3251 93.6854 29.3157C92.9353 29.3781 92.1593 29.4832 91.4078 29.435L91.125 29.6524C92.7422 30.9951 94.0165 31.7522 94.988 33.7196C93.1871 32.3382 92.4105 30.5116 89.9265 30.1462C88.8955 30.3006 88.0224 31.3826 87.4259 32.1862C87.0739 32.6604 86.5631 33.0977 86.2597 33.5779C85.754 34.3782 85.5185 35.3008 84.8731 36.0155C85.1633 36.5517 86.4787 36.9467 86.9984 37.3316C87.7114 37.8598 88.4884 38.4813 89.1225 39.125L88.875 39.331C86.3722 37.036 83.2445 35.3671 79.7404 35.5374C76.2272 35.7082 73.179 37.5862 70.8827 40.1501L68.7275 42.9451L68.4247 43.0322C67.0996 42.2026 65.8641 40.7147 64.7904 39.5692L64.7128 39.3061C64.4427 38.8351 64.5276 38.1359 64.4526 37.6026C64.3632 36.9678 64.0957 36.3138 63.8731 35.7162L63.8781 35.6431C63.7989 35.5431 63.7228 35.4379 63.6632 35.3248C63.3956 34.8167 63.0905 33.1941 63.2468 32.6644C63.6222 31.8583 64.7953 31.2961 65.2562 30.3539L65.2818 30.2999L65.6888 30.2609L65.7222 31.2309L66.1028 31.3662C67.3543 30.4037 69.0434 29.7568 69.5598 28.2701L67.266 27.4851C66.7102 27.8557 66.2779 27.7909 65.625 27.8179L65.1678 27.25C65.6704 26.6071 65.8754 26.4502 66.625 26.1275C66.8649 25.7673 67.0512 25.4543 67.1576 25.0311L67.1827 24.9277Z"/>
	<path fill="#787471" d="M63.2468 32.6644C63.6222 31.8583 64.7953 31.2961 65.2562 30.3539L65.2818 30.2999L65.6888 30.2609L65.7222 31.2309C65.3164 32.056 65.4568 32.9555 65.3531 33.8429C65.1416 35.6533 64.7666 37.4835 64.7128 39.3061C64.4427 38.8351 64.5276 38.1359 64.4526 37.6026C64.3632 36.9678 64.0957 36.3138 63.8731 35.7162L63.8781 35.6431C63.7989 35.5431 63.7228 35.4379 63.6632 35.3248C63.3956 34.8167 63.0905 33.1941 63.2468 32.6644Z"/>
	<path fill="#787471" d="M67.1827 24.9277C71.7508 24.4558 76.7648 24.9579 81.3687 25.0928C82.5463 25.1273 84.6679 25.4692 85.7545 25.1375C87.2611 25.6491 89.5104 26.1533 90.7989 27.0684C91.8793 27.7334 92.8644 28.3251 93.6854 29.3157C92.9353 29.3781 92.1593 29.4832 91.4078 29.435L91.3937 29.3505C88.839 28.6872 86.121 28.7515 83.4982 28.6735L69.5598 28.2701L67.266 27.4851C66.7102 27.8557 66.2779 27.7909 65.625 27.8179L65.1678 27.25C65.6704 26.6071 65.8754 26.4502 66.625 26.1275C66.8649 25.7673 67.0512 25.4543 67.1576 25.0311L67.1827 24.9277Z"/>
	<path fill="#272C37" d="M67.1827 24.9277C71.7508 24.4558 76.7648 24.9579 81.3687 25.0928C82.5463 25.1273 84.6679 25.4692 85.7545 25.1375C87.2611 25.6491 89.5104 26.1533 90.7989 27.0684C88.5108 26.9098 86.2465 26.4418 83.9688 26.3292C82.1363 26.2386 68.0219 26.4153 67.4829 26.75L67.266 27.4851C66.7102 27.8557 66.2779 27.7909 65.625 27.8179L65.1678 27.25C65.6704 26.6071 65.8754 26.4502 66.625 26.1275C66.8649 25.7673 67.0512 25.4543 67.1576 25.0311L67.1827 24.9277Z"/>
	<path fill="#274462" d="M64.7904 39.5692C65.8641 40.7147 67.0996 42.2026 68.4247 43.0322L68.3154 43.732C68.7924 44.0333 69.2175 43.932 69.6275 44.125C70.0124 44.3062 71.3114 45.3063 71.5659 45.62C72.1415 46.3295 72.2964 47.0152 73.0704 47.75L72.9627 49.9306C74.0728 51.0569 75.4851 52.3728 76.875 53.1225C77.3355 53.0139 77.4685 53.1179 77.9016 53.2842C78.6522 54.0616 79.425 55.2047 80.2079 55.875C81.1137 56.6506 82.1139 56.7113 82.4906 58C82.2009 58.6011 82.1148 58.7027 81.562 59.0758L81.286 59.0869C80.7236 59.4133 80.4826 59.483 80.3033 60.1622C80.181 60.6257 80.2547 61.1966 80.2853 61.6729L80.4902 80.2307C81.6609 80.2352 82.9307 80.1374 84.0881 80.284L82.75 80.6375L87.8813 80.8111C85.2077 81.1791 82.4371 80.8303 79.7433 80.8764L73.4328 81.0493C72.8544 81.0505 71.864 81.1765 71.3371 80.9761C70.7141 80.5304 69.8954 80.3916 69.2017 80.0704C68.461 79.7276 66.6683 78.1814 66.0197 78.2647L65.9175 79.625C65.3415 79.4805 65.2792 79.1854 64.9745 78.7025L65.3784 78.3664L64.747 68.3887L64.7636 65.361C64.4102 62.5374 64.7342 59.3865 64.762 56.5295L64.6346 49.2757L64.7904 39.5692Z"/>
	<path fill="#3C6080" d="M64.7904 39.5692C65.8641 40.7147 67.0996 42.2026 68.4247 43.0322L68.3154 43.732C68.7924 44.0333 69.2175 43.932 69.6275 44.125C70.0124 44.3062 71.3114 45.3063 71.5659 45.62C72.1415 46.3295 72.2964 47.0152 73.0704 47.75L72.9627 49.9306C72.1335 51.5424 71.4735 55.0211 72.0228 56.7405C72.2675 57.5063 72.2899 58.2208 72.4996 59.0004L72.3445 59C71.597 56.6652 71.4541 53.8285 71.9315 51.4229C72.0284 50.9348 72.6676 49.2914 72.5986 48.9392C72.5323 48.6006 70.659 47.2756 70.2867 46.9461C69.4282 46.1862 68.6746 45.2382 67.9852 44.3297C66.5486 48.3497 65.9623 52.0224 65.875 56.2824C65.8284 55.9987 65.788 55.7207 65.686 55.4505C65.2678 54.3424 65.4833 52.5754 65.5 51.375C65.9199 50.7451 65.6284 50.1308 65.9522 49.4781C66.1593 49.0606 67.8224 43.329 67.8177 43.3164C67.5371 42.5702 65.9841 41.3591 65.375 40.75C65.0315 41.6003 65.3714 42.3579 65.331 43.2859C65.3036 43.9153 65.0814 44.527 65.0543 45.191C64.9929 46.6962 65.1246 48.2314 65.1142 49.7443C65.1101 50.3332 64.9721 51.376 65.1779 51.884C65.4813 52.6328 65.3888 53.4298 65.3904 54.2355C65.3934 55.7564 65.4696 57.3473 65.349 58.8615C65.3188 59.2407 65.131 59.5777 65.1195 59.9623C65.0694 61.6336 65.3987 63.7226 64.7929 65.2881L64.7636 65.361C64.4102 62.5374 64.7342 59.3865 64.762 56.5295L64.6346 49.2757L64.7904 39.5692Z"/>
</svg>
